<?xml version="1.0" encoding="utf-8"?>
<!-- Generator: Adobe Illustrator 18.1.1, SVG Export Plug-In . SVG Version: 6.00 Build 0)  -->
<svg version="1.1" xmlns="http://www.w3.org/2000/svg" xmlns:xlink="http://www.w3.org/1999/xlink" x="0px" y="0px"
	 viewBox="0 0 1229 378" enable-background="new 0 0 1229 378" xml:space="preserve">
<g id="bgColor">
	<line fill="none" stroke="#DBEEF4" stroke-width="356" stroke-miterlimit="10" x1="87" y1="198" x2="1156" y2="198"/>
</g>
<g id="layout">
	<line fill="none" stroke="#BF504E" stroke-width="41" stroke-miterlimit="10" x1="21" y1="18" x2="21" y2="226"/>
	<line fill="none" stroke="#BF504E" stroke-width="36" stroke-miterlimit="10" x1="35" y1="208" x2="87" y2="208"/>
	<line fill="none" stroke="#F79647" stroke-width="45" stroke-miterlimit="10" x1="64" y1="18" x2="64" y2="190"/>
	<line fill="none" stroke="#F8FC43" stroke-width="119" stroke-miterlimit="10" x1="682" y1="217" x2="682" y2="377"/>
	<line fill="none" stroke="#F8FC43" stroke-width="87" stroke-miterlimit="10" x1="876" y1="20.5" x2="876" y2="165.5"/>
	<line fill="none" stroke="#5180BC" stroke-width="8" stroke-miterlimit="10" x1="726.5" y1="26.5" x2="726.5" y2="110"/>
	<line fill="none" stroke="#82649F" stroke-width="8" stroke-miterlimit="10" x1="735" y1="26.5" x2="735" y2="110"/>
	<line fill="none" stroke="#231F20" stroke-width="2" stroke-miterlimit="10" x1="730.5" y1="26.5" x2="730.5" y2="110"/>
	<line fill="none" stroke="#5180BC" stroke-width="8" stroke-miterlimit="10" x1="747.5" y1="26.5" x2="747.5" y2="110"/>
	<line fill="none" stroke="#82649F" stroke-width="8" stroke-miterlimit="10" x1="756" y1="26.5" x2="756" y2="110"/>
	<line fill="none" stroke="#231F20" stroke-width="2" stroke-miterlimit="10" x1="751.5" y1="26.5" x2="751.5" y2="110"/>
	<line fill="none" stroke="#5180BC" stroke-width="8" stroke-miterlimit="10" x1="769.5" y1="26.5" x2="769.5" y2="110"/>
	<line fill="none" stroke="#82649F" stroke-width="8" stroke-miterlimit="10" x1="778" y1="26.5" x2="778" y2="110"/>
	<line fill="none" stroke="#231F20" stroke-width="2" stroke-miterlimit="10" x1="773.5" y1="26.5" x2="773.5" y2="110"/>
	<line fill="none" stroke="#5180BC" stroke-width="8" stroke-miterlimit="10" x1="790.5" y1="26.5" x2="790.5" y2="110"/>
	<line fill="none" stroke="#82649F" stroke-width="8" stroke-miterlimit="10" x1="799" y1="26.5" x2="799" y2="110"/>
	<line fill="none" stroke="#231F20" stroke-width="2" stroke-miterlimit="10" x1="794.5" y1="26.5" x2="794.5" y2="110"/>
	<line fill="none" stroke="#5180BC" stroke-width="8" stroke-miterlimit="10" x1="812.5" y1="26.5" x2="812.5" y2="110"/>
	<line fill="none" stroke="#82649F" stroke-width="8" stroke-miterlimit="10" x1="821" y1="26.5" x2="821" y2="110"/>
	<line fill="none" stroke="#231F20" stroke-width="2" stroke-miterlimit="10" x1="816.5" y1="26.5" x2="816.5" y2="110"/>
	<line fill="none" stroke="#5180BC" stroke-width="8" stroke-miterlimit="10" x1="864.5" y1="239.5" x2="864.5" y2="307.5"/>
	<line fill="none" stroke="#82649F" stroke-width="8" stroke-miterlimit="10" x1="873" y1="239.5" x2="873" y2="307.5"/>
	<line fill="none" stroke="#231F20" stroke-width="2" stroke-miterlimit="10" x1="868.5" y1="239.5" x2="868.5" y2="307.5"/>
	<line fill="none" stroke="#5180BC" stroke-width="8" stroke-miterlimit="10" x1="896.5" y1="239.5" x2="896.5" y2="307.5"/>
	<line fill="none" stroke="#82649F" stroke-width="8" stroke-miterlimit="10" x1="905" y1="239.5" x2="905" y2="307.5"/>
	<line fill="none" stroke="#231F20" stroke-width="2" stroke-miterlimit="10" x1="900.5" y1="239.5" x2="900.5" y2="307.5"/>
	<line fill="none" stroke="#4F81C2" stroke-width="8" stroke-miterlimit="10" x1="929" y1="156" x2="987.5" y2="156"/>
	<line fill="none" stroke="#81649C" stroke-width="8" stroke-miterlimit="10" x1="929" y1="146.5" x2="987.5" y2="146.5"/>
	<line fill="none" stroke="#231F20" stroke-width="2" stroke-miterlimit="10" x1="929" y1="151.5" x2="987.5" y2="151.5"/>
	<line fill="none" stroke="#4F81C2" stroke-width="8" stroke-miterlimit="10" x1="929" y1="132" x2="987.5" y2="132"/>
	<line fill="none" stroke="#81649C" stroke-width="8" stroke-miterlimit="10" x1="929" y1="122.5" x2="987.5" y2="122.5"/>
	<line fill="none" stroke="#231F20" stroke-width="2" stroke-miterlimit="10" x1="929" y1="127.5" x2="987.5" y2="127.5"/>
	<line fill="none" stroke="#4F81C2" stroke-width="8" stroke-miterlimit="10" x1="929" y1="104" x2="987.5" y2="104"/>
	<line fill="none" stroke="#81649C" stroke-width="8" stroke-miterlimit="10" x1="929" y1="94.5" x2="987.5" y2="94.5"/>
	<line fill="none" stroke="#231F20" stroke-width="2" stroke-miterlimit="10" x1="929" y1="99.5" x2="987.5" y2="99.5"/>
	<line fill="none" stroke="#4F81C2" stroke-width="8" stroke-miterlimit="10" x1="929" y1="75" x2="987.5" y2="75"/>
	<line fill="none" stroke="#81649C" stroke-width="8" stroke-miterlimit="10" x1="929" y1="65.5" x2="987.5" y2="65.5"/>
	<line fill="none" stroke="#231F20" stroke-width="2" stroke-miterlimit="10" x1="929" y1="70.5" x2="987.5" y2="70.5"/>
	<line fill="none" stroke="#4F81C2" stroke-width="8" stroke-miterlimit="10" x1="929" y1="50" x2="987.5" y2="50"/>
	<line fill="none" stroke="#81649C" stroke-width="8" stroke-miterlimit="10" x1="929" y1="40.5" x2="987.5" y2="40.5"/>
	<line fill="none" stroke="#231F20" stroke-width="2" stroke-miterlimit="10" x1="929" y1="45.5" x2="987.5" y2="45.5"/>
	<line fill="none" stroke="#507FBD" stroke-width="8" stroke-miterlimit="10" x1="1023" y1="88" x2="1112.5" y2="88"/>
	<line fill="none" stroke="#7E64A0" stroke-width="8" stroke-miterlimit="10" x1="1023" y1="79" x2="1112.5" y2="79"/>
	<line fill="none" stroke="#231F20" stroke-width="2" stroke-miterlimit="10" x1="1023" y1="83.5" x2="1112.5" y2="83.5"/>
	<line fill="none" stroke="#507FBD" stroke-width="8" stroke-miterlimit="10" x1="1023" y1="61" x2="1112.5" y2="61"/>
	<line fill="none" stroke="#7E64A0" stroke-width="8" stroke-miterlimit="10" x1="1023" y1="52" x2="1112.5" y2="52"/>
	<line fill="none" stroke="#231F20" stroke-width="2" stroke-miterlimit="10" x1="1023" y1="56.5" x2="1112.5" y2="56.5"/>
	<line fill="none" stroke="#0071C2" stroke-width="2" stroke-miterlimit="10" x1="919.5" y1="18.5" x2="919.5" y2="167.5"/>
	<line fill="none" stroke="#0071C2" stroke-width="2" stroke-miterlimit="10" x1="831.5" y1="19.5" x2="831.5" y2="166.5"/>
	<line fill="none" stroke="#0071C2" stroke-width="2" stroke-miterlimit="10" x1="830.5" y1="166.5" x2="919.5" y2="166.5"/>
	<line fill="none" stroke="#0071C2" stroke-width="2" stroke-miterlimit="10" x1="830.5" y1="19.5" x2="919.5" y2="19.5"/>
	<line fill="none" stroke="#5182BB" stroke-width="7" stroke-miterlimit="10" x1="1150" y1="38" x2="1150" y2="92"/>
	<line fill="none" stroke="#016FBE" stroke-width="2" stroke-miterlimit="10" x1="620.5" y1="216" x2="743.5" y2="216"/>
	<line fill="none" stroke="#016FBE" stroke-width="2" stroke-miterlimit="10" x1="621.5" y1="217" x2="621.5" y2="379"/>
	<line fill="none" stroke="#016FBE" stroke-width="2" stroke-miterlimit="10" x1="621.5" y1="375" x2="742.5" y2="375"/>
	<line fill="none" stroke="#016FBE" stroke-width="2" stroke-miterlimit="10" x1="742.5" y1="217" x2="742.5" y2="379"/>
	<line fill="none" stroke="#81649C" stroke-width="7" stroke-miterlimit="10" x1="1150" y1="92" x2="1150" y2="112.5"/>
	<line fill="none" stroke="#231F20" stroke-width="2" stroke-miterlimit="10" x1="1146.5" y1="92" x2="1153" y2="92"/>
	<line fill="none" stroke="#F79647" stroke-width="45" stroke-miterlimit="10" x1="1179" y1="18.5" x2="1179" y2="190"/>
	<line fill="none" stroke="#BF504E" stroke-width="35" stroke-miterlimit="10" x1="1212" y1="17.5" x2="1212" y2="224"/>
	<line fill="none" stroke="#BF504E" stroke-width="35" stroke-miterlimit="10" x1="1156" y1="208" x2="1229" y2="208"/>
	<line fill="none" stroke="#231F20" stroke-miterlimit="10" x1="1156" y1="190" x2="1194.5" y2="190"/>
	<line fill="none" stroke="#231F20" stroke-miterlimit="10" x1="1194.5" y1="18.5" x2="1194.5" y2="190"/>
	<line fill="none" stroke="#231F20" stroke-miterlimit="10" x1="1156.5" y1="18.5" x2="1156.5" y2="190"/>
	<line fill="none" stroke="#231F20" stroke-miterlimit="10" x1="1156" y1="18.5" x2="1194.5" y2="18.5"/>
	<line fill="none" stroke="#3B5C8A" stroke-width="3" stroke-miterlimit="10" x1="1154.5" y1="19.5" x2="1154.5" y2="377"/>
	<line fill="none" stroke="#34608A" stroke-width="3" stroke-miterlimit="10" x1="1155.5" y1="377" x2="88" y2="377"/>
	<line fill="none" stroke="#34608A" stroke-width="3" stroke-miterlimit="10" x1="87" y1="226" x2="87" y2="379"/>
	<line fill="none" stroke="#34608A" stroke-width="2" stroke-miterlimit="10" x1="88.5" y1="226" x2="620.5" y2="226"/>
	<line fill="none" stroke="#34608A" stroke-width="3" stroke-miterlimit="10" x1="743.5" y1="218" x2="831.5" y2="218"/>
	<line fill="none" stroke="#34608A" stroke-width="3" stroke-miterlimit="10" x1="830.5" y1="217" x2="830.5" y2="379"/>
	<line fill="none" stroke="#231F20" stroke-miterlimit="10" x1="42" y1="18" x2="42" y2="190"/>
	<line fill="none" stroke="#231F20" stroke-miterlimit="10" x1="42" y1="190" x2="87" y2="190"/>
	<line fill="none" stroke="#231F20" stroke-miterlimit="10" x1="42" y1="18" x2="87" y2="18"/>
	<line fill="none" stroke="#231F20" stroke-miterlimit="10" x1="87" y1="18" x2="87" y2="190"/>
	<line fill="none" stroke="#3A5E8C" stroke-width="2" stroke-miterlimit="10" x1="87" y1="19" x2="1156.5" y2="19"/>
	<line fill="none" stroke="#4BADC5" stroke-width="149" stroke-miterlimit="10" x1="88" y1="301" x2="620.5" y2="301"/>
	<line fill="none" stroke="#01B0F1" stroke-width="86" stroke-miterlimit="10" x1="786.5" y1="219" x2="786.5" y2="376"/>
	<line fill="none" stroke="#231F20" stroke-width="2" stroke-miterlimit="10" x1="687.7" y1="201" x2="687.7" y2="214.3"/>
	<path fill="none" stroke="#231F20" stroke-miterlimit="10" d="M673.3,214.3c0-7.4,6.4-13.3,14.3-13.3"/>
	<line fill="none" stroke="#231F20" stroke-width="2" stroke-miterlimit="10" x1="584.3" y1="5" x2="584.3" y2="17.7"/>
	<path fill="none" stroke="#231F20" stroke-miterlimit="10" d="M570.3,19c0-7.7,6.7-14,15-14"/>
	<path fill="none" stroke="#231F20" stroke-miterlimit="10" d="M536,19.5c0,7.1,6.4,12.8,14.3,12.8"/>
	<line fill="none" stroke="#231F20" stroke-width="2" stroke-miterlimit="10" x1="1156.3" y1="172" x2="1172" y2="172"/>
	<path fill="none" stroke="#231F20" stroke-miterlimit="10" d="M1172,171.3c0,8.5-7.2,15.3-16,15.3"/>
	<line fill="none" stroke="#231F20" stroke-width="2" stroke-miterlimit="10" x1="1156" y1="202" x2="1170.3" y2="202"/>
	<path fill="none" stroke="#231F20" stroke-miterlimit="10" d="M1170.3,201c0,7.7-6.4,14-14.3,14"/>
	<line fill="none" stroke="#231F20" stroke-width="2" stroke-miterlimit="10" x1="550.3" y1="19.5" x2="550.3" y2="32.3"/>
	<line fill="none" stroke="#231F20" stroke-width="2" stroke-miterlimit="10" x1="71.7" y1="169" x2="87" y2="169"/>
	<line fill="none" stroke="#231F20" stroke-width="2" stroke-miterlimit="10" x1="74.5" y1="193" x2="87" y2="193"/>
	<path fill="none" stroke="#231F20" stroke-miterlimit="10" d="M71.5,169c0,7.5,6.9,13.5,15.5,13.5"/>
	<path fill="none" stroke="#231F20" stroke-miterlimit="10" d="M74.5,193c0,7.5,5.4,13.5,12,13.5"/>
</g>
</svg>
