<?xml version="1.0" encoding="utf-8"?>
<!-- Generator: Adobe Illustrator 18.1.1, SVG Export Plug-In . SVG Version: 6.00 Build 0)  -->
<svg version="1.1" xmlns="http://www.w3.org/2000/svg" xmlns:xlink="http://www.w3.org/1999/xlink" x="0px" y="0px"
	 viewBox="0 0 1229 378" enable-background="new 0 0 1229 378" xml:space="preserve">
<g id="bg">
	<line fill="none" stroke="#B7DDE8" stroke-width="375" stroke-miterlimit="10" x1="1149" y1="189.8" x2="79.5" y2="189.8"/>
</g>
<g id="bg2">
	<line fill="none" stroke="#E6E0EC" stroke-width="162" stroke-miterlimit="10" x1="108" y1="81.5" x2="1119.5" y2="81.5"/>
	<line fill="none" stroke="#E6E0EC" stroke-width="22" stroke-miterlimit="10" x1="133.5" y1="171" x2="1094.5" y2="171"/>
	<path fill="none" stroke="#E6E0EC" stroke-width="20" stroke-miterlimit="10" d="M116,152.7c0,12.1,13.4,21.8,30,21.8"/>
	<path fill="none" stroke="#E6E0EC" stroke-width="20" stroke-miterlimit="10" d="M1110.1,154.7c0,10.7-12.1,19.3-27.1,19.3"/>
	<line fill="none" stroke="#E6E0EC" stroke-width="68" stroke-miterlimit="10" x1="1151" y1="188.5" x2="1226.7" y2="188.5"/>
	<line fill="none" stroke="#E6E0EC" stroke-width="68" stroke-miterlimit="10" x1="1.8" y1="186" x2="78" y2="186"/>
</g>
<g id="layout">
	<line fill="none" stroke="#C0504E" stroke-width="80" stroke-miterlimit="10" x1="40" y1="0" x2="40" y2="155"/>
	<line fill="none" stroke="#F79647" stroke-width="80" stroke-miterlimit="10" x1="1189" y1="0" x2="1189" y2="155"/>
	<line fill="none" stroke="#4E82BB" stroke-width="8" stroke-miterlimit="10" x1="799" y1="14.5" x2="799" y2="141.5"/>
	<line fill="none" stroke="#7E64A1" stroke-width="8" stroke-miterlimit="10" x1="808" y1="14.5" x2="808" y2="141.5"/>
	<line fill="none" stroke="#231F20" stroke-width="2" stroke-miterlimit="10" x1="803.5" y1="14.5" x2="803.5" y2="141.5"/>
	<line fill="none" stroke="#4E82BB" stroke-width="8" stroke-miterlimit="10" x1="829" y1="14.5" x2="829" y2="141.5"/>
	<line fill="none" stroke="#7E64A1" stroke-width="8" stroke-miterlimit="10" x1="838" y1="14.5" x2="838" y2="141.5"/>
	<line fill="none" stroke="#231F20" stroke-width="2" stroke-miterlimit="10" x1="833.5" y1="14.5" x2="833.5" y2="141.5"/>
	<line fill="none" stroke="#4E82BB" stroke-width="8" stroke-miterlimit="10" x1="859" y1="14.5" x2="859" y2="141.5"/>
	<line fill="none" stroke="#7E64A1" stroke-width="8" stroke-miterlimit="10" x1="868" y1="14.5" x2="868" y2="141.5"/>
	<line fill="none" stroke="#231F20" stroke-width="2" stroke-miterlimit="10" x1="863.5" y1="14.5" x2="863.5" y2="141.5"/>
	<line fill="none" stroke="#4E82BB" stroke-width="8" stroke-miterlimit="10" x1="888" y1="14.5" x2="888" y2="141.5"/>
	<line fill="none" stroke="#7E64A1" stroke-width="8" stroke-miterlimit="10" x1="897" y1="14.5" x2="897" y2="141.5"/>
	<line fill="none" stroke="#231F20" stroke-width="2" stroke-miterlimit="10" x1="892.5" y1="14.5" x2="892.5" y2="141.5"/>
	<line fill="none" stroke="#4E82BB" stroke-width="8" stroke-miterlimit="10" x1="917" y1="14.5" x2="917" y2="141.5"/>
	<line fill="none" stroke="#7E64A1" stroke-width="8" stroke-miterlimit="10" x1="926" y1="14.5" x2="926" y2="141.5"/>
	<line fill="none" stroke="#231F20" stroke-width="2" stroke-miterlimit="10" x1="921.5" y1="14.5" x2="921.5" y2="141.5"/>
	<line fill="none" stroke="#4E82BB" stroke-width="8" stroke-miterlimit="10" x1="945" y1="14.5" x2="945" y2="141.5"/>
	<line fill="none" stroke="#7E64A1" stroke-width="8" stroke-miterlimit="10" x1="954" y1="14.5" x2="954" y2="141.5"/>
	<line fill="none" stroke="#231F20" stroke-width="2" stroke-miterlimit="10" x1="949.5" y1="14.5" x2="949.5" y2="141.5"/>
	<line fill="none" stroke="#4E82BB" stroke-width="8" stroke-miterlimit="10" x1="973" y1="14.5" x2="973" y2="141.5"/>
	<line fill="none" stroke="#7E64A1" stroke-width="8" stroke-miterlimit="10" x1="982" y1="14.5" x2="982" y2="141.5"/>
	<line fill="none" stroke="#231F20" stroke-width="2" stroke-miterlimit="10" x1="977.5" y1="14.5" x2="977.5" y2="141.5"/>
	<line fill="none" stroke="#4E82BB" stroke-width="8" stroke-miterlimit="10" x1="1001" y1="14.5" x2="1001" y2="141.5"/>
	<line fill="none" stroke="#7E64A1" stroke-width="8" stroke-miterlimit="10" x1="1010" y1="14.5" x2="1010" y2="141.5"/>
	<line fill="none" stroke="#231F20" stroke-width="2" stroke-miterlimit="10" x1="1005.5" y1="14.5" x2="1005.5" y2="141.5"/>
	<line fill="none" stroke="#4E82BB" stroke-width="8" stroke-miterlimit="10" x1="1031" y1="14.5" x2="1031" y2="141.5"/>
	<line fill="none" stroke="#7E64A1" stroke-width="8" stroke-miterlimit="10" x1="1040" y1="14.5" x2="1040" y2="141.5"/>
	<line fill="none" stroke="#231F20" stroke-width="2" stroke-miterlimit="10" x1="1035.5" y1="14.5" x2="1035.5" y2="141.5"/>
	<line fill="none" stroke="#4E82BB" stroke-width="8" stroke-miterlimit="10" x1="1058" y1="14.5" x2="1058" y2="141.5"/>
	<line fill="none" stroke="#7E64A1" stroke-width="8" stroke-miterlimit="10" x1="1067" y1="14.5" x2="1067" y2="141.5"/>
	<line fill="none" stroke="#231F20" stroke-width="2" stroke-miterlimit="10" x1="1062.5" y1="14.5" x2="1062.5" y2="141.5"/>
	<line fill="none" stroke="#4E82BB" stroke-width="8" stroke-miterlimit="10" x1="1086" y1="14.5" x2="1086" y2="141.5"/>
	<line fill="none" stroke="#7E64A1" stroke-width="8" stroke-miterlimit="10" x1="1095" y1="14.5" x2="1095" y2="141.5"/>
	<line fill="none" stroke="#231F20" stroke-width="2" stroke-miterlimit="10" x1="1090.5" y1="14.5" x2="1090.5" y2="141.5"/>
	<line fill="none" stroke="#4E82BB" stroke-width="8" stroke-miterlimit="10" x1="1116" y1="14.5" x2="1116" y2="141.5"/>
	<line fill="none" stroke="#7E64A1" stroke-width="8" stroke-miterlimit="10" x1="1125" y1="14.5" x2="1125" y2="141.5"/>
	<line fill="none" stroke="#231F20" stroke-width="2" stroke-miterlimit="10" x1="1120.5" y1="14.5" x2="1120.5" y2="141.5"/>
	<line fill="none" stroke="#4E82BB" stroke-width="8" stroke-miterlimit="10" x1="774" y1="233.5" x2="774" y2="360.5"/>
	<line fill="none" stroke="#7E64A1" stroke-width="8" stroke-miterlimit="10" x1="783" y1="233.5" x2="783" y2="360.5"/>
	<line fill="none" stroke="#231F20" stroke-width="2" stroke-miterlimit="10" x1="778.5" y1="233.5" x2="778.5" y2="360.5"/>
	<line fill="none" stroke="#4E82BB" stroke-width="8" stroke-miterlimit="10" x1="805" y1="233.5" x2="805" y2="360.5"/>
	<line fill="none" stroke="#7E64A1" stroke-width="8" stroke-miterlimit="10" x1="814" y1="233.5" x2="814" y2="360.5"/>
	<line fill="none" stroke="#231F20" stroke-width="2" stroke-miterlimit="10" x1="809.5" y1="233.5" x2="809.5" y2="360.5"/>
	<line fill="none" stroke="#4E82BB" stroke-width="8" stroke-miterlimit="10" x1="838" y1="233.5" x2="838" y2="360.5"/>
	<line fill="none" stroke="#7E64A1" stroke-width="8" stroke-miterlimit="10" x1="847" y1="233.5" x2="847" y2="360.5"/>
	<line fill="none" stroke="#231F20" stroke-width="2" stroke-miterlimit="10" x1="842.5" y1="233.5" x2="842.5" y2="360.5"/>
	<line fill="none" stroke="#4E82BB" stroke-width="8" stroke-miterlimit="10" x1="872" y1="233.5" x2="872" y2="360.5"/>
	<line fill="none" stroke="#7E64A1" stroke-width="8" stroke-miterlimit="10" x1="881" y1="233.5" x2="881" y2="360.5"/>
	<line fill="none" stroke="#231F20" stroke-width="2" stroke-miterlimit="10" x1="876.5" y1="233.5" x2="876.5" y2="360.5"/>
	<line fill="none" stroke="#4E82BB" stroke-width="8" stroke-miterlimit="10" x1="906" y1="233.5" x2="906" y2="360.5"/>
	<line fill="none" stroke="#7E64A1" stroke-width="8" stroke-miterlimit="10" x1="915" y1="233.5" x2="915" y2="360.5"/>
	<line fill="none" stroke="#231F20" stroke-width="2" stroke-miterlimit="10" x1="910.5" y1="233.5" x2="910.5" y2="360.5"/>
	<line fill="none" stroke="#4E82BB" stroke-width="8" stroke-miterlimit="10" x1="940" y1="233.5" x2="940" y2="360.5"/>
	<line fill="none" stroke="#7E64A1" stroke-width="8" stroke-miterlimit="10" x1="949" y1="233.5" x2="949" y2="360.5"/>
	<line fill="none" stroke="#231F20" stroke-width="2" stroke-miterlimit="10" x1="944.5" y1="233.5" x2="944.5" y2="360.5"/>
	<line fill="none" stroke="#4E82BB" stroke-width="8" stroke-miterlimit="10" x1="971" y1="233.5" x2="971" y2="360.5"/>
	<line fill="none" stroke="#7E64A1" stroke-width="8" stroke-miterlimit="10" x1="980" y1="233.5" x2="980" y2="360.5"/>
	<line fill="none" stroke="#231F20" stroke-width="2" stroke-miterlimit="10" x1="975.5" y1="233.5" x2="975.5" y2="360.5"/>
	<line fill="none" stroke="#4E82BB" stroke-width="8" stroke-miterlimit="10" x1="1004" y1="233.5" x2="1004" y2="360.5"/>
	<line fill="none" stroke="#7E64A1" stroke-width="8" stroke-miterlimit="10" x1="1013" y1="233.5" x2="1013" y2="360.5"/>
	<line fill="none" stroke="#231F20" stroke-width="2" stroke-miterlimit="10" x1="1008.5" y1="233.5" x2="1008.5" y2="360.5"/>
	<line fill="none" stroke="#4E82BB" stroke-width="8" stroke-miterlimit="10" x1="1033" y1="233.5" x2="1033" y2="360.5"/>
	<line fill="none" stroke="#7E64A1" stroke-width="8" stroke-miterlimit="10" x1="1042" y1="233.5" x2="1042" y2="360.5"/>
	<line fill="none" stroke="#231F20" stroke-width="2" stroke-miterlimit="10" x1="1037.5" y1="233.5" x2="1037.5" y2="360.5"/>
	<line fill="none" stroke="#4E82BB" stroke-width="8" stroke-miterlimit="10" x1="1063" y1="233.5" x2="1063" y2="360.5"/>
	<line fill="none" stroke="#7E64A1" stroke-width="8" stroke-miterlimit="10" x1="1072" y1="233.5" x2="1072" y2="360.5"/>
	<line fill="none" stroke="#231F20" stroke-width="2" stroke-miterlimit="10" x1="1067.5" y1="233.5" x2="1067.5" y2="360.5"/>
	<line fill="none" stroke="#4E82BB" stroke-width="8" stroke-miterlimit="10" x1="1092" y1="233.5" x2="1092" y2="360.5"/>
	<line fill="none" stroke="#7E64A1" stroke-width="8" stroke-miterlimit="10" x1="1101" y1="233.5" x2="1101" y2="360.5"/>
	<line fill="none" stroke="#231F20" stroke-width="2" stroke-miterlimit="10" x1="1096.5" y1="233.5" x2="1096.5" y2="360.5"/>
	<line fill="none" stroke="#4E82BB" stroke-width="8" stroke-miterlimit="10" x1="1122" y1="233.5" x2="1122" y2="360.5"/>
	<line fill="none" stroke="#7E64A1" stroke-width="8" stroke-miterlimit="10" x1="1131" y1="233.5" x2="1131" y2="360.5"/>
	<line fill="none" stroke="#231F20" stroke-width="2" stroke-miterlimit="10" x1="1126.5" y1="233.5" x2="1126.5" y2="360.5"/>
	<line fill="none" stroke="#4E82BB" stroke-width="8" stroke-miterlimit="10" x1="409" y1="12" x2="409" y2="140"/>
	<line fill="none" stroke="#7E64A1" stroke-width="8" stroke-miterlimit="10" x1="418" y1="12" x2="418" y2="140"/>
	<line fill="none" stroke="#231F20" stroke-width="2" stroke-miterlimit="10" x1="413.5" y1="12" x2="413.5" y2="140"/>
	<line fill="none" stroke="#4E82BB" stroke-width="8" stroke-miterlimit="10" x1="382" y1="12" x2="382" y2="140"/>
	<line fill="none" stroke="#7E64A1" stroke-width="8" stroke-miterlimit="10" x1="391" y1="12" x2="391" y2="140"/>
	<line fill="none" stroke="#231F20" stroke-width="2" stroke-miterlimit="10" x1="386.5" y1="12" x2="386.5" y2="140"/>
	<line fill="none" stroke="#4E82BB" stroke-width="8" stroke-miterlimit="10" x1="352" y1="12" x2="352" y2="140"/>
	<line fill="none" stroke="#7E64A1" stroke-width="8" stroke-miterlimit="10" x1="361" y1="12" x2="361" y2="140"/>
	<line fill="none" stroke="#231F20" stroke-width="2" stroke-miterlimit="10" x1="356.5" y1="12" x2="356.5" y2="140"/>
	<line fill="none" stroke="#4E82BB" stroke-width="8" stroke-miterlimit="10" x1="322" y1="12" x2="322" y2="140"/>
	<line fill="none" stroke="#7E64A1" stroke-width="8" stroke-miterlimit="10" x1="331" y1="12" x2="331" y2="140"/>
	<line fill="none" stroke="#231F20" stroke-width="2" stroke-miterlimit="10" x1="326.5" y1="12" x2="326.5" y2="140"/>
	<line fill="none" stroke="#4E82BB" stroke-width="8" stroke-miterlimit="10" x1="294" y1="12" x2="294" y2="140"/>
	<line fill="none" stroke="#7E64A1" stroke-width="8" stroke-miterlimit="10" x1="303" y1="12" x2="303" y2="140"/>
	<line fill="none" stroke="#231F20" stroke-width="2" stroke-miterlimit="10" x1="298.5" y1="12" x2="298.5" y2="140"/>
	<line fill="none" stroke="#4E82BB" stroke-width="8" stroke-miterlimit="10" x1="265" y1="12" x2="265" y2="140"/>
	<line fill="none" stroke="#7E64A1" stroke-width="8" stroke-miterlimit="10" x1="274" y1="12" x2="274" y2="140"/>
	<line fill="none" stroke="#231F20" stroke-width="2" stroke-miterlimit="10" x1="269.5" y1="12" x2="269.5" y2="140"/>
	<line fill="none" stroke="#4E82BB" stroke-width="8" stroke-miterlimit="10" x1="235" y1="13" x2="235" y2="140"/>
	<line fill="none" stroke="#7E64A1" stroke-width="8" stroke-miterlimit="10" x1="244" y1="13" x2="244" y2="140"/>
	<line fill="none" stroke="#231F20" stroke-width="2" stroke-miterlimit="10" x1="239.5" y1="13" x2="239.5" y2="140"/>
	<line fill="none" stroke="#4E82BB" stroke-width="8" stroke-miterlimit="10" x1="207" y1="13" x2="207" y2="140"/>
	<line fill="none" stroke="#7E64A1" stroke-width="8" stroke-miterlimit="10" x1="216" y1="13" x2="216" y2="140"/>
	<line fill="none" stroke="#231F20" stroke-width="2" stroke-miterlimit="10" x1="211.5" y1="13" x2="211.5" y2="140"/>
	<line fill="none" stroke="#4E82BB" stroke-width="8" stroke-miterlimit="10" x1="180" y1="13" x2="180" y2="140"/>
	<line fill="none" stroke="#7E64A1" stroke-width="8" stroke-miterlimit="10" x1="189" y1="13" x2="189" y2="140"/>
	<line fill="none" stroke="#231F20" stroke-width="2" stroke-miterlimit="10" x1="184.5" y1="13" x2="184.5" y2="140"/>
	<line fill="none" stroke="#4E82BB" stroke-width="8" stroke-miterlimit="10" x1="152" y1="13" x2="152" y2="140"/>
	<line fill="none" stroke="#7E64A1" stroke-width="8" stroke-miterlimit="10" x1="161" y1="13" x2="161" y2="140"/>
	<line fill="none" stroke="#231F20" stroke-width="2" stroke-miterlimit="10" x1="156.5" y1="13" x2="156.5" y2="140"/>
	<line fill="none" stroke="#4E82BB" stroke-width="8" stroke-miterlimit="10" x1="127" y1="13" x2="127" y2="140"/>
	<line fill="none" stroke="#7E64A1" stroke-width="8" stroke-miterlimit="10" x1="136" y1="13" x2="136" y2="140"/>
	<line fill="none" stroke="#231F20" stroke-width="2" stroke-miterlimit="10" x1="131.5" y1="13" x2="131.5" y2="140"/>
	<line fill="none" stroke="#4E82BB" stroke-width="8" stroke-miterlimit="10" x1="469" y1="234.5" x2="469" y2="362"/>
	<line fill="none" stroke="#7E64A1" stroke-width="8" stroke-miterlimit="10" x1="478" y1="234.5" x2="478" y2="361.5"/>
	<line fill="none" stroke="#231F20" stroke-width="2" stroke-miterlimit="10" x1="473.5" y1="234.5" x2="473.5" y2="362"/>
	<line fill="none" stroke="#4E82BB" stroke-width="8" stroke-miterlimit="10" x1="440" y1="234.5" x2="440" y2="362"/>
	<line fill="none" stroke="#7E64A1" stroke-width="8" stroke-miterlimit="10" x1="449" y1="234.5" x2="449" y2="362"/>
	<line fill="none" stroke="#231F20" stroke-width="2" stroke-miterlimit="10" x1="444.5" y1="234.5" x2="444.5" y2="362"/>
	<line fill="none" stroke="#4E82BB" stroke-width="8" stroke-miterlimit="10" x1="410" y1="234.5" x2="410" y2="362.5"/>
	<line fill="none" stroke="#7E64A1" stroke-width="8" stroke-miterlimit="10" x1="419" y1="234.5" x2="419" y2="362.5"/>
	<line fill="none" stroke="#231F20" stroke-width="2" stroke-miterlimit="10" x1="414.5" y1="234.5" x2="414.5" y2="362.5"/>
	<line fill="none" stroke="#4E82BB" stroke-width="8" stroke-miterlimit="10" x1="378" y1="234.5" x2="378" y2="362.5"/>
	<line fill="none" stroke="#7E64A1" stroke-width="8" stroke-miterlimit="10" x1="387" y1="234.5" x2="387" y2="362.5"/>
	<line fill="none" stroke="#231F20" stroke-width="2" stroke-miterlimit="10" x1="382.5" y1="234.5" x2="382.5" y2="362.5"/>
	<line fill="none" stroke="#4E82BB" stroke-width="8" stroke-miterlimit="10" x1="348" y1="234.5" x2="348" y2="362.5"/>
	<line fill="none" stroke="#7E64A1" stroke-width="8" stroke-miterlimit="10" x1="357" y1="234.5" x2="357" y2="362.5"/>
	<line fill="none" stroke="#231F20" stroke-width="2" stroke-miterlimit="10" x1="352.5" y1="234.5" x2="352.5" y2="362.5"/>
	<line fill="none" stroke="#4E82BB" stroke-width="8" stroke-miterlimit="10" x1="320" y1="234.5" x2="320" y2="362.5"/>
	<line fill="none" stroke="#7E64A1" stroke-width="8" stroke-miterlimit="10" x1="329" y1="234.5" x2="329" y2="362.5"/>
	<line fill="none" stroke="#231F20" stroke-width="2" stroke-miterlimit="10" x1="324.5" y1="234.5" x2="324.5" y2="362.5"/>
	<line fill="none" stroke="#4E82BB" stroke-width="8" stroke-miterlimit="10" x1="291" y1="234.5" x2="291" y2="362.5"/>
	<line fill="none" stroke="#7E64A1" stroke-width="8" stroke-miterlimit="10" x1="300" y1="234.5" x2="300" y2="362.5"/>
	<line fill="none" stroke="#231F20" stroke-width="2" stroke-miterlimit="10" x1="295.5" y1="234.5" x2="295.5" y2="362.5"/>
	<line fill="none" stroke="#4E82BB" stroke-width="8" stroke-miterlimit="10" x1="261" y1="234.5" x2="261" y2="362.5"/>
	<line fill="none" stroke="#7E64A1" stroke-width="8" stroke-miterlimit="10" x1="270" y1="234.5" x2="270" y2="362.5"/>
	<line fill="none" stroke="#231F20" stroke-width="2" stroke-miterlimit="10" x1="265.5" y1="234.5" x2="265.5" y2="362.5"/>
	<line fill="none" stroke="#4E82BB" stroke-width="8" stroke-miterlimit="10" x1="230" y1="234.5" x2="230" y2="362.5"/>
	<line fill="none" stroke="#7E64A1" stroke-width="8" stroke-miterlimit="10" x1="239" y1="234.5" x2="239" y2="362.5"/>
	<line fill="none" stroke="#231F20" stroke-width="2" stroke-miterlimit="10" x1="234.5" y1="234.5" x2="234.5" y2="362.5"/>
	<line fill="none" stroke="#4E82BB" stroke-width="8" stroke-miterlimit="10" x1="202" y1="234.5" x2="202" y2="362.5"/>
	<line fill="none" stroke="#7E64A1" stroke-width="8" stroke-miterlimit="10" x1="211" y1="234.5" x2="211" y2="362.5"/>
	<line fill="none" stroke="#231F20" stroke-width="2" stroke-miterlimit="10" x1="206.5" y1="234.5" x2="206.5" y2="362.5"/>
	<line fill="none" stroke="#4E82BB" stroke-width="8" stroke-miterlimit="10" x1="173" y1="234.5" x2="173" y2="362"/>
	<line fill="none" stroke="#7E64A1" stroke-width="8" stroke-miterlimit="10" x1="182" y1="234.5" x2="182" y2="362"/>
	<line fill="none" stroke="#231F20" stroke-width="2" stroke-miterlimit="10" x1="177.5" y1="234.5" x2="177.5" y2="362"/>
	<line fill="none" stroke="#4E82BB" stroke-width="8" stroke-miterlimit="10" x1="146" y1="234.5" x2="146" y2="362"/>
	<line fill="none" stroke="#7E64A1" stroke-width="8" stroke-miterlimit="10" x1="155" y1="234.5" x2="155" y2="362"/>
	<line fill="none" stroke="#231F20" stroke-width="2" stroke-miterlimit="10" x1="150.5" y1="234.5" x2="150.5" y2="362"/>
	<line fill="none" stroke="#4E82BB" stroke-width="8" stroke-miterlimit="10" x1="118" y1="234.5" x2="118" y2="362"/>
	<line fill="none" stroke="#7E64A1" stroke-width="8" stroke-miterlimit="10" x1="127" y1="234.5" x2="127" y2="362"/>
	<line fill="none" stroke="#231F20" stroke-width="2" stroke-miterlimit="10" x1="122.5" y1="234.5" x2="122.5" y2="362"/>
	<line fill="none" stroke="#4C83BC" stroke-width="8" stroke-miterlimit="10" x1="509.5" y1="0" x2="509.5" y2="40"/>
	<line fill="none" stroke="#4C83BC" stroke-width="8" stroke-miterlimit="10" x1="721.5" y1="0" x2="721.5" y2="40"/>
	<line fill="none" stroke="#375E89" stroke-width="2" stroke-miterlimit="10" x1="491" y1="183.5" x2="491" y2="376"/>
	<line fill="none" stroke="#395B89" stroke-width="2" stroke-miterlimit="10" x1="563" y1="184" x2="563" y2="214.5"/>
	<line fill="none" stroke="#395B89" stroke-width="2" stroke-miterlimit="10" x1="671" y1="184" x2="671" y2="214.5"/>
	<line fill="none" stroke="#395B89" stroke-width="2" stroke-miterlimit="10" x1="563" y1="213.5" x2="671" y2="213.5"/>
	<line fill="#395B89" stroke="#395B89" stroke-width="2" stroke-miterlimit="10" x1="562" y1="184.5" x2="672" y2="184.5"/>
	<line fill="none" stroke="#395B89" stroke-width="2" stroke-miterlimit="10" x1="556.5" y1="318.5" x2="556.5" y2="378"/>
	<line fill="none" stroke="#395B89" stroke-width="2" stroke-miterlimit="10" x1="555.5" y1="318.5" x2="672" y2="318.5"/>
	<line fill="none" stroke="#395B89" stroke-width="2" stroke-miterlimit="10" x1="671" y1="318.5" x2="671" y2="378"/>
	<line fill="none" stroke="#375E89" stroke-width="2" stroke-miterlimit="10" x1="753" y1="183.5" x2="753" y2="378"/>
	<line fill="none" stroke="#395B89" stroke-width="2" stroke-miterlimit="10" x1="513" y1="39" x2="718" y2="39"/>
	<line fill="none" stroke="#395E8B" stroke-width="2" stroke-miterlimit="10" x1="578" y1="40" x2="578" y2="83"/>
	<line fill="none" stroke="#395E8B" stroke-width="2" stroke-miterlimit="10" x1="578" y1="83" x2="655" y2="83"/>
	<line fill="none" stroke="#395E8B" stroke-width="2" stroke-miterlimit="10" x1="655" y1="83" x2="655" y2="40"/>
	<line fill="none" stroke="#01B0F1" stroke-width="42" stroke-miterlimit="10" x1="578.5" y1="60.8" x2="654" y2="60.8"/>
	<line fill="none" stroke="#F8FC43" stroke-width="58" stroke-miterlimit="10" x1="557.5" y1="348.5" x2="669" y2="348.5"/>
	<line fill="none" stroke="#F8FC43" stroke-width="27" stroke-miterlimit="10" x1="564.5" y1="199.3" x2="670" y2="199.3"/>
	<line fill="none" stroke="#4E82BB" stroke-width="8" stroke-miterlimit="10" x1="92" y1="235" x2="92" y2="362"/>
	<line fill="none" stroke="#7E64A1" stroke-width="8" stroke-miterlimit="10" x1="101" y1="235" x2="101" y2="362"/>
	<line fill="none" stroke="#231F20" stroke-width="2" stroke-miterlimit="10" x1="96.5" y1="235" x2="96.5" y2="362"/>
	<line fill="none" stroke="#4E82BB" stroke-width="8" stroke-miterlimit="10" x1="103" y1="13" x2="103" y2="140"/>
	<line fill="none" stroke="#7E64A1" stroke-width="8" stroke-miterlimit="10" x1="112" y1="13" x2="112" y2="140"/>
	<line fill="none" stroke="#231F20" stroke-width="2" stroke-miterlimit="10" x1="107.5" y1="13" x2="107.5" y2="140"/>
	<line fill="none" stroke="#3A5C8A" stroke-width="2" stroke-miterlimit="10" x1="79" y1="155" x2="79" y2="378"/>
	<line fill="none" stroke="#3A5C8A" stroke-width="2" stroke-miterlimit="10" x1="79" y1="377" x2="681.5" y2="377"/>
	<line fill="none" stroke="#3A5C8A" stroke-width="2" stroke-miterlimit="10" x1="1150.5" y1="155" x2="1151" y2="378"/>
	<line fill="none" stroke="#3A5C8A" stroke-width="2" stroke-miterlimit="10" x1="1150" y1="377" x2="672" y2="377"/>
	<line fill="none" stroke="#375E89" stroke-width="3" stroke-miterlimit="10" x1="80.5" y1="2" x2="1148.5" y2="2"/>
	<line fill="none" stroke="#231F20" stroke-miterlimit="10" x1="80" y1="161.3" x2="95" y2="161.3"/>
	<path fill="none" stroke="#231F20" stroke-miterlimit="10" d="M95,161.3c0,8.1-6.7,14.7-15,14.7"/>
	<line fill="none" stroke="#231F20" stroke-width="2" stroke-miterlimit="10" x1="46.3" y1="155" x2="46.3" y2="168.7"/>
	<path fill="none" stroke="#231F20" stroke-miterlimit="10" d="M32.3,155c0,7.6,6.3,13.7,14,13.7"/>
	<line fill="none" stroke="#4D83BF" stroke-width="10" stroke-miterlimit="10" x1="84.7" y1="185" x2="84.7" y2="220.3"/>
	<line fill="none" stroke="#375D89" stroke-width="2" stroke-miterlimit="10" x1="0" y1="220.3" x2="79" y2="220.3"/>
	<line fill="none" stroke="#231F20" stroke-width="2" stroke-miterlimit="10" x1="622.7" y1="304.3" x2="622.7" y2="317"/>
	<path fill="none" stroke="#231F20" stroke-miterlimit="10" d="M608,317.5c0-7.1,6.6-12.8,14.7-12.8"/>
	<line fill="none" stroke="#231F20" stroke-width="2" stroke-miterlimit="10" x1="692.3" y1="23.3" x2="692.3" y2="38"/>
	<path fill="none" stroke="#231F20" stroke-miterlimit="10" d="M679,38c0-8.1,6-14.7,13.3-14.7"/>
	<line fill="none" stroke="#231F20" stroke-width="2" stroke-miterlimit="10" x1="555.7" y1="40" x2="555.7" y2="54.3"/>
	<path fill="none" stroke="#231F20" stroke-miterlimit="10" d="M541.3,40c0,7.9,6.4,14.3,14.3,14.3"/>
	<line fill="none" stroke="#231F20" stroke-width="2" stroke-miterlimit="10" x1="1149.3" y1="157.3" x2="1132" y2="157.3"/>
	<path fill="none" stroke="#231F20" stroke-miterlimit="10" d="M1132,157.3c0,8.5,8.1,15.3,18,15.3"/>
	<path fill="none" stroke="#231F20" stroke-width="2" stroke-miterlimit="10" d="M1226.7,160.7c0,0-7.3,0-16.3,0"/>
	<path fill="none" stroke="#231F20" stroke-miterlimit="10" d="M1210.3,160.7c0,8.7,7.3,15.7,16.3,15.7"/>
	<line fill="none" stroke="#395D89" stroke-width="2" stroke-miterlimit="10" x1="1228" y1="155" x2="1228" y2="222"/>
	<line fill="none" stroke="#395D89" stroke-width="2" stroke-miterlimit="10" x1="1228" y1="221" x2="1151" y2="221"/>
	<line fill="none" stroke="#375D89" stroke-width="2" stroke-miterlimit="10" x1="1" y1="155" x2="1" y2="220.3"/>
	<line fill="none" stroke="#3E5F8A" stroke-width="2" stroke-miterlimit="10" x1="505.5" y1="184" x2="505.5" y2="213.5"/>
	<line fill="none" stroke="#3E5F8A" stroke-width="2" stroke-miterlimit="10" x1="506" y1="212.5" x2="562.3" y2="212.5"/>
	<line fill="none" stroke="#3E5F8A" stroke-width="2" stroke-miterlimit="10" x1="727" y1="183.5" x2="727" y2="213.5"/>
	<line fill="none" stroke="#3E5F8A" stroke-width="2" stroke-miterlimit="10" x1="728" y1="212.5" x2="672" y2="212.5"/>
	<line fill="none" stroke="#1A395C" stroke-width="2" stroke-miterlimit="10" x1="513" y1="183.5" x2="513" y2="212"/>
	<line fill="none" stroke="#1A395C" stroke-width="2" stroke-miterlimit="10" x1="520" y1="184" x2="520" y2="212"/>
	<line fill="none" stroke="#1A395C" stroke-width="2" stroke-miterlimit="10" x1="527" y1="184" x2="527" y2="212"/>
	<line fill="none" stroke="#1A395C" stroke-width="2" stroke-miterlimit="10" x1="534" y1="184" x2="534" y2="212"/>
	<line fill="none" stroke="#1A395C" stroke-width="2" stroke-miterlimit="10" x1="541" y1="184" x2="541" y2="212"/>
	<line fill="none" stroke="#1A395C" stroke-width="2" stroke-miterlimit="10" x1="548" y1="184" x2="548" y2="212"/>
	<line fill="none" stroke="#1A395C" stroke-width="2" stroke-miterlimit="10" x1="555" y1="184" x2="555" y2="212"/>
	<line fill="none" stroke="#1A395C" stroke-width="2" stroke-miterlimit="10" x1="678" y1="184" x2="678" y2="212"/>
	<line fill="none" stroke="#1A395C" stroke-width="2" stroke-miterlimit="10" x1="685" y1="184" x2="685" y2="212"/>
	<line fill="none" stroke="#1A395C" stroke-width="2" stroke-miterlimit="10" x1="692" y1="184" x2="692" y2="212"/>
	<line fill="none" stroke="#1A395C" stroke-width="2" stroke-miterlimit="10" x1="699" y1="184" x2="699" y2="212"/>
	<line fill="none" stroke="#1A395C" stroke-width="2" stroke-miterlimit="10" x1="706" y1="184" x2="706" y2="212"/>
	<line fill="none" stroke="#1A395C" stroke-width="2" stroke-miterlimit="10" x1="713" y1="184" x2="713" y2="212"/>
	<line fill="none" stroke="#1A395C" stroke-width="2" stroke-miterlimit="10" x1="720" y1="184" x2="720" y2="212"/>
	<line fill="none" stroke="#E7B9B7" stroke-width="6" stroke-miterlimit="10" x1="509.5" y1="183.5" x2="509.5" y2="212"/>
	<line fill="none" stroke="#E7B9B7" stroke-width="6" stroke-miterlimit="10" x1="516.5" y1="183.5" x2="516.5" y2="212"/>
	<line fill="none" stroke="#E7B9B7" stroke-width="6" stroke-miterlimit="10" x1="523.5" y1="183.5" x2="523.5" y2="212"/>
	<line fill="none" stroke="#E7B9B7" stroke-width="6" stroke-miterlimit="10" x1="530.5" y1="183.5" x2="530.5" y2="212"/>
	<line fill="none" stroke="#E7B9B7" stroke-width="6" stroke-miterlimit="10" x1="537.5" y1="183.5" x2="537.5" y2="212"/>
	<line fill="none" stroke="#E7B9B7" stroke-width="6" stroke-miterlimit="10" x1="544.5" y1="183.5" x2="544.5" y2="212"/>
	<line fill="none" stroke="#E7B9B7" stroke-width="6" stroke-miterlimit="10" x1="551.5" y1="183.5" x2="551.5" y2="212"/>
	<line fill="none" stroke="#E7B9B7" stroke-width="6.1" stroke-miterlimit="10" x1="558.8" y1="183.5" x2="558.8" y2="212"/>
	<line fill="none" stroke="#E7B9B7" stroke-width="6" stroke-miterlimit="10" x1="674.5" y1="183.5" x2="674.5" y2="212"/>
	<line fill="none" stroke="#E7B9B7" stroke-width="6" stroke-miterlimit="10" x1="681.5" y1="183.5" x2="681.5" y2="212"/>
	<line fill="none" stroke="#E7B9B7" stroke-width="6" stroke-miterlimit="10" x1="688.5" y1="183.5" x2="688.5" y2="212"/>
	<line fill="none" stroke="#E7B9B7" stroke-width="6" stroke-miterlimit="10" x1="695.5" y1="183.5" x2="695.5" y2="212"/>
	<line fill="none" stroke="#E7B9B7" stroke-width="6" stroke-miterlimit="10" x1="702.5" y1="183.5" x2="702.5" y2="212"/>
	<line fill="none" stroke="#E7B9B7" stroke-width="6" stroke-miterlimit="10" x1="709.5" y1="183.5" x2="709.5" y2="212"/>
	<line fill="none" stroke="#E7B9B7" stroke-width="6" stroke-miterlimit="10" x1="716.5" y1="183.5" x2="716.5" y2="212"/>
	<line fill="none" stroke="#E7B9B7" stroke-width="6" stroke-miterlimit="10" x1="723.5" y1="183.5" x2="723.5" y2="212"/>
</g>
<g id="curve">
	<line fill="none" stroke="#3E5F8A" stroke-miterlimit="10" x1="106.5" y1="3.5" x2="106.5" y2="150.5"/>
	<path fill="none" stroke="#3E5F8A" stroke-miterlimit="10" d="M106.5,149.5c0,18.8,12.1,34,27,34"/>
	<line fill="none" stroke="#3E5F8A" stroke-miterlimit="10" x1="133.5" y1="183.5" x2="1094.5" y2="183.5"/>
	<line fill="none" stroke="#3E5F8A" stroke-miterlimit="10" x1="1119.5" y1="1.5" x2="1119.5" y2="141.5"/>
	<path fill="none" stroke="#3E5F8A" stroke-miterlimit="10" d="M1094.5,183.5c16.5-2.1,27.6-21.4,24.8-43"/>
</g>
</svg>
