<?xml version="1.0" encoding="utf-8"?>
<!-- Generator: Adobe Illustrator 18.1.1, SVG Export Plug-In . SVG Version: 6.00 Build 0)  -->
<svg version="1.1" xmlns="http://www.w3.org/2000/svg" xmlns:xlink="http://www.w3.org/1999/xlink" x="0px" y="0px"
	 viewBox="0 0 1229 378" enable-background="new 0 0 1229 378" xml:space="preserve">
<g id="bgColor">
	<line fill="none" stroke="#DBEEF4" stroke-width="356" stroke-miterlimit="10" x1="1142" y1="186" x2="73" y2="186"/>
</g>
<g id="layout">
	<line fill="none" stroke="#BF504E" stroke-width="41" stroke-miterlimit="10" x1="1208" y1="366" x2="1208" y2="158"/>
	<line fill="none" stroke="#BF504E" stroke-width="36" stroke-miterlimit="10" x1="1194" y1="176" x2="1142" y2="176"/>
	<line fill="none" stroke="#F79647" stroke-width="45" stroke-miterlimit="10" x1="1165" y1="366" x2="1165" y2="194"/>
	<line fill="none" stroke="#F8FC43" stroke-width="119" stroke-miterlimit="10" x1="547" y1="169" x2="547" y2="9"/>
	<line fill="none" stroke="#F8FC43" stroke-width="87" stroke-miterlimit="10" x1="353" y1="363.5" x2="353" y2="218.5"/>
	<line fill="none" stroke="#5180BC" stroke-width="8" stroke-miterlimit="10" x1="502.5" y1="357.5" x2="502.5" y2="274"/>
	<line fill="none" stroke="#82649F" stroke-width="8" stroke-miterlimit="10" x1="494" y1="357.5" x2="494" y2="274"/>
	<line fill="none" stroke="#231F20" stroke-width="2" stroke-miterlimit="10" x1="498.5" y1="357.5" x2="498.5" y2="274"/>
	<line fill="none" stroke="#5180BC" stroke-width="8" stroke-miterlimit="10" x1="481.5" y1="357.5" x2="481.5" y2="274"/>
	<line fill="none" stroke="#82649F" stroke-width="8" stroke-miterlimit="10" x1="473" y1="357.5" x2="473" y2="274"/>
	<line fill="none" stroke="#231F20" stroke-width="2" stroke-miterlimit="10" x1="477.5" y1="357.5" x2="477.5" y2="274"/>
	<line fill="none" stroke="#5180BC" stroke-width="8" stroke-miterlimit="10" x1="459.5" y1="357.5" x2="459.5" y2="274"/>
	<line fill="none" stroke="#82649F" stroke-width="8" stroke-miterlimit="10" x1="451" y1="357.5" x2="451" y2="274"/>
	<line fill="none" stroke="#231F20" stroke-width="2" stroke-miterlimit="10" x1="455.5" y1="357.5" x2="455.5" y2="274"/>
	<line fill="none" stroke="#5180BC" stroke-width="8" stroke-miterlimit="10" x1="438.5" y1="357.5" x2="438.5" y2="274"/>
	<line fill="none" stroke="#82649F" stroke-width="8" stroke-miterlimit="10" x1="430" y1="357.5" x2="430" y2="274"/>
	<line fill="none" stroke="#231F20" stroke-width="2" stroke-miterlimit="10" x1="434.5" y1="357.5" x2="434.5" y2="274"/>
	<line fill="none" stroke="#5180BC" stroke-width="8" stroke-miterlimit="10" x1="416.5" y1="357.5" x2="416.5" y2="274"/>
	<line fill="none" stroke="#82649F" stroke-width="8" stroke-miterlimit="10" x1="408" y1="357.5" x2="408" y2="274"/>
	<line fill="none" stroke="#231F20" stroke-width="2" stroke-miterlimit="10" x1="412.5" y1="357.5" x2="412.5" y2="274"/>
	<line fill="none" stroke="#5180BC" stroke-width="8" stroke-miterlimit="10" x1="364.5" y1="144.5" x2="364.5" y2="76.5"/>
	<line fill="none" stroke="#82649F" stroke-width="8" stroke-miterlimit="10" x1="356" y1="144.5" x2="356" y2="76.5"/>
	<line fill="none" stroke="#231F20" stroke-width="2" stroke-miterlimit="10" x1="360.5" y1="144.5" x2="360.5" y2="76.5"/>
	<line fill="none" stroke="#5180BC" stroke-width="8" stroke-miterlimit="10" x1="332.5" y1="144.5" x2="332.5" y2="76.5"/>
	<line fill="none" stroke="#82649F" stroke-width="8" stroke-miterlimit="10" x1="324" y1="144.5" x2="324" y2="76.5"/>
	<line fill="none" stroke="#231F20" stroke-width="2" stroke-miterlimit="10" x1="328.5" y1="144.5" x2="328.5" y2="76.5"/>
	<line fill="none" stroke="#4F81C2" stroke-width="8" stroke-miterlimit="10" x1="300" y1="228" x2="241.5" y2="228"/>
	<line fill="none" stroke="#81649C" stroke-width="8" stroke-miterlimit="10" x1="300" y1="237.5" x2="241.5" y2="237.5"/>
	<line fill="none" stroke="#231F20" stroke-width="2" stroke-miterlimit="10" x1="300" y1="232.5" x2="241.5" y2="232.5"/>
	<line fill="none" stroke="#4F81C2" stroke-width="8" stroke-miterlimit="10" x1="300" y1="252" x2="241.5" y2="252"/>
	<line fill="none" stroke="#81649C" stroke-width="8" stroke-miterlimit="10" x1="300" y1="261.5" x2="241.5" y2="261.5"/>
	<line fill="none" stroke="#231F20" stroke-width="2" stroke-miterlimit="10" x1="300" y1="256.5" x2="241.5" y2="256.5"/>
	<line fill="none" stroke="#4F81C2" stroke-width="8" stroke-miterlimit="10" x1="300" y1="280" x2="241.5" y2="280"/>
	<line fill="none" stroke="#81649C" stroke-width="8" stroke-miterlimit="10" x1="300" y1="289.5" x2="241.5" y2="289.5"/>
	<line fill="none" stroke="#231F20" stroke-width="2" stroke-miterlimit="10" x1="300" y1="284.5" x2="241.5" y2="284.5"/>
	<line fill="none" stroke="#4F81C2" stroke-width="8" stroke-miterlimit="10" x1="300" y1="309" x2="241.5" y2="309"/>
	<line fill="none" stroke="#81649C" stroke-width="8" stroke-miterlimit="10" x1="300" y1="318.5" x2="241.5" y2="318.5"/>
	<line fill="none" stroke="#231F20" stroke-width="2" stroke-miterlimit="10" x1="300" y1="313.5" x2="241.5" y2="313.5"/>
	<line fill="none" stroke="#4F81C2" stroke-width="8" stroke-miterlimit="10" x1="300" y1="334" x2="241.5" y2="334"/>
	<line fill="none" stroke="#81649C" stroke-width="8" stroke-miterlimit="10" x1="300" y1="343.5" x2="241.5" y2="343.5"/>
	<line fill="none" stroke="#231F20" stroke-width="2" stroke-miterlimit="10" x1="300" y1="338.5" x2="241.5" y2="338.5"/>
	<line fill="none" stroke="#507FBD" stroke-width="8" stroke-miterlimit="10" x1="206" y1="296" x2="116.5" y2="296"/>
	<line fill="none" stroke="#7E64A0" stroke-width="8" stroke-miterlimit="10" x1="206" y1="305" x2="116.5" y2="305"/>
	<line fill="none" stroke="#231F20" stroke-width="2" stroke-miterlimit="10" x1="206" y1="300.5" x2="116.5" y2="300.5"/>
	<line fill="none" stroke="#507FBD" stroke-width="8" stroke-miterlimit="10" x1="206" y1="323" x2="116.5" y2="323"/>
	<line fill="none" stroke="#7E64A0" stroke-width="8" stroke-miterlimit="10" x1="206" y1="332" x2="116.5" y2="332"/>
	<line fill="none" stroke="#231F20" stroke-width="2" stroke-miterlimit="10" x1="206" y1="327.5" x2="116.5" y2="327.5"/>
	<line fill="none" stroke="#0071C2" stroke-width="2" stroke-miterlimit="10" x1="309.5" y1="365.5" x2="309.5" y2="216.5"/>
	<line fill="none" stroke="#0071C2" stroke-width="2" stroke-miterlimit="10" x1="397.5" y1="364.5" x2="397.5" y2="217.5"/>
	<line fill="none" stroke="#0071C2" stroke-width="2" stroke-miterlimit="10" x1="398.5" y1="217.5" x2="309.5" y2="217.5"/>
	<line fill="none" stroke="#0071C2" stroke-width="2" stroke-miterlimit="10" x1="398.5" y1="364.5" x2="309.5" y2="364.5"/>
	<line fill="none" stroke="#5182BB" stroke-width="7" stroke-miterlimit="10" x1="79.5" y1="346" x2="79.5" y2="292"/>
	<line fill="none" stroke="#016FBE" stroke-width="2" stroke-miterlimit="10" x1="608.5" y1="168" x2="485.5" y2="168"/>
	<line fill="none" stroke="#016FBE" stroke-width="2" stroke-miterlimit="10" x1="607.5" y1="167" x2="607.5" y2="5"/>
	<line fill="none" stroke="#016FBE" stroke-width="2" stroke-miterlimit="10" x1="607.5" y1="9" x2="486.5" y2="9"/>
	<line fill="none" stroke="#016FBE" stroke-width="2" stroke-miterlimit="10" x1="486.5" y1="167" x2="486.5" y2="5"/>
	<line fill="none" stroke="#81649C" stroke-width="7" stroke-miterlimit="10" x1="79" y1="291" x2="79" y2="270.5"/>
	<line fill="none" stroke="#231F20" stroke-width="2" stroke-miterlimit="10" x1="82.5" y1="292" x2="76" y2="292"/>
	<line fill="none" stroke="#F79647" stroke-width="45" stroke-miterlimit="10" x1="50" y1="365.5" x2="50" y2="194"/>
	<line fill="none" stroke="#BF504E" stroke-width="35" stroke-miterlimit="10" x1="17" y1="366.5" x2="17" y2="160"/>
	<line fill="none" stroke="#BF504E" stroke-width="35" stroke-miterlimit="10" x1="73" y1="176" x2="0" y2="176"/>
	<line fill="none" stroke="#231F20" stroke-miterlimit="10" x1="73" y1="194" x2="34.5" y2="194"/>
	<line fill="none" stroke="#231F20" stroke-miterlimit="10" x1="34.5" y1="365.5" x2="34.5" y2="194"/>
	<line fill="none" stroke="#231F20" stroke-miterlimit="10" x1="72.5" y1="365.5" x2="72.5" y2="194"/>
	<line fill="none" stroke="#231F20" stroke-miterlimit="10" x1="73" y1="365.5" x2="34.5" y2="365.5"/>
	<line fill="none" stroke="#3B5C8A" stroke-width="3" stroke-miterlimit="10" x1="74.5" y1="364.5" x2="74.5" y2="7"/>
	<line fill="none" stroke="#34608A" stroke-width="3" stroke-miterlimit="10" x1="73.5" y1="7" x2="1141" y2="7"/>
	<line fill="none" stroke="#34608A" stroke-width="3" stroke-miterlimit="10" x1="1142" y1="158" x2="1142" y2="5"/>
	<line fill="none" stroke="#34608A" stroke-width="2" stroke-miterlimit="10" x1="1140.5" y1="158" x2="608.5" y2="158"/>
	<line fill="none" stroke="#34608A" stroke-width="3" stroke-miterlimit="10" x1="485.5" y1="166" x2="397.5" y2="166"/>
	<line fill="none" stroke="#34608A" stroke-width="3" stroke-miterlimit="10" x1="398.5" y1="167" x2="398.5" y2="5"/>
	<line fill="none" stroke="#231F20" stroke-miterlimit="10" x1="1187" y1="366" x2="1187" y2="194"/>
	<line fill="none" stroke="#231F20" stroke-miterlimit="10" x1="1187" y1="194" x2="1142" y2="194"/>
	<line fill="none" stroke="#231F20" stroke-miterlimit="10" x1="1187" y1="366" x2="1142" y2="366"/>
	<line fill="none" stroke="#231F20" stroke-miterlimit="10" x1="1142" y1="366" x2="1142" y2="194"/>
	<line fill="none" stroke="#3A5E8C" stroke-width="2" stroke-miterlimit="10" x1="1142" y1="365" x2="72.5" y2="365"/>
	<line fill="none" stroke="#50C44D" stroke-width="149" stroke-miterlimit="10" x1="1141" y1="83" x2="608.5" y2="83"/>
	<line fill="none" stroke="#01B0F1" stroke-width="86" stroke-miterlimit="10" x1="442.5" y1="165" x2="442.5" y2="8"/>
	<line fill="none" stroke="#231F20" stroke-width="2" stroke-miterlimit="10" x1="541.3" y1="183" x2="541.3" y2="169.7"/>
	<path fill="none" stroke="#231F20" stroke-miterlimit="10" d="M555.7,169.7c0,7.4-6.4,13.3-14.3,13.3"/>
	<line fill="none" stroke="#231F20" stroke-width="2" stroke-miterlimit="10" x1="644.7" y1="379" x2="644.7" y2="366.3"/>
	<path fill="none" stroke="#231F20" stroke-miterlimit="10" d="M658.7,365c0,7.7-6.7,14-15,14"/>
	<path fill="none" stroke="#231F20" stroke-miterlimit="10" d="M693,364.5c0-7.1-6.4-12.8-14.3-12.8"/>
	<line fill="none" stroke="#231F20" stroke-width="2" stroke-miterlimit="10" x1="72.7" y1="212" x2="57" y2="212"/>
	<path fill="none" stroke="#231F20" stroke-miterlimit="10" d="M57,212.7c0-8.5,7.2-15.3,16-15.3"/>
	<line fill="none" stroke="#231F20" stroke-width="2" stroke-miterlimit="10" x1="73" y1="182" x2="58.7" y2="182"/>
	<path fill="none" stroke="#231F20" stroke-miterlimit="10" d="M58.7,183c0-7.7,6.4-14,14.3-14"/>
	<line fill="none" stroke="#231F20" stroke-width="2" stroke-miterlimit="10" x1="678.7" y1="364.5" x2="678.7" y2="351.7"/>
	<line fill="none" stroke="#231F20" stroke-width="2" stroke-miterlimit="10" x1="1157.3" y1="215" x2="1142" y2="215"/>
	<line fill="none" stroke="#231F20" stroke-width="2" stroke-miterlimit="10" x1="1154.5" y1="191" x2="1142" y2="191"/>
	<path fill="none" stroke="#231F20" stroke-miterlimit="10" d="M1157.5,215c0-7.5-6.9-13.5-15.5-13.5"/>
	<path fill="none" stroke="#231F20" stroke-miterlimit="10" d="M1154.5,191c0-7.5-5.4-13.5-12-13.5"/>
</g>
</svg>
