<?xml version="1.0" encoding="utf-8"?>
<!-- Generator: Adobe Illustrator 18.1.1, SVG Export Plug-In . SVG Version: 6.00 Build 0)  -->
<svg version="1.1" xmlns="http://www.w3.org/2000/svg" xmlns:xlink="http://www.w3.org/1999/xlink" x="0px" y="0px"
	 viewBox="0 0 1229 378" enable-background="new 0 0 1229 378" xml:space="preserve">
<g id="bg">
	<line fill="none" stroke="#B7DDE8" stroke-width="375" stroke-miterlimit="10" x1="80" y1="188.3" x2="1149.5" y2="188.3"/>
</g>
<g id="bg2">
	<line fill="none" stroke="#E6E0EC" stroke-width="162" stroke-miterlimit="10" x1="1121" y1="296.5" x2="109.5" y2="296.5"/>
	<line fill="none" stroke="#E6E0EC" stroke-width="22" stroke-miterlimit="10" x1="1095.5" y1="207" x2="134.5" y2="207"/>
	<path fill="none" stroke="#E6E0EC" stroke-width="20" stroke-miterlimit="10" d="M1113,225.3c0-12.1-13.4-21.8-30-21.8"/>
	<path fill="none" stroke="#E6E0EC" stroke-width="20" stroke-miterlimit="10" d="M118.9,223.3c0-10.7,12.1-19.3,27.1-19.3"/>
	<line fill="none" stroke="#E6E0EC" stroke-width="68" stroke-miterlimit="10" x1="78" y1="189.5" x2="2.3" y2="189.5"/>
	<line fill="none" stroke="#E6E0EC" stroke-width="68" stroke-miterlimit="10" x1="1227.3" y1="192" x2="1151" y2="192"/>
</g>
<g id="layout">
	<line fill="none" stroke="#C0504E" stroke-width="80" stroke-miterlimit="10" x1="1189" y1="378" x2="1189" y2="223"/>
	<line fill="none" stroke="#F79647" stroke-width="80" stroke-miterlimit="10" x1="40" y1="378" x2="40" y2="223"/>
	<line fill="none" stroke="#4E82BB" stroke-width="8" stroke-miterlimit="10" x1="430" y1="363.5" x2="430" y2="236.5"/>
	<line fill="none" stroke="#7E64A1" stroke-width="8" stroke-miterlimit="10" x1="421" y1="363.5" x2="421" y2="236.5"/>
	<line fill="none" stroke="#231F20" stroke-width="2" stroke-miterlimit="10" x1="425.5" y1="363.5" x2="425.5" y2="236.5"/>
	<line fill="none" stroke="#4E82BB" stroke-width="8" stroke-miterlimit="10" x1="400" y1="363.5" x2="400" y2="236.5"/>
	<line fill="none" stroke="#7E64A1" stroke-width="8" stroke-miterlimit="10" x1="391" y1="363.5" x2="391" y2="236.5"/>
	<line fill="none" stroke="#231F20" stroke-width="2" stroke-miterlimit="10" x1="395.5" y1="363.5" x2="395.5" y2="236.5"/>
	<line fill="none" stroke="#4E82BB" stroke-width="8" stroke-miterlimit="10" x1="370" y1="363.5" x2="370" y2="236.5"/>
	<line fill="none" stroke="#7E64A1" stroke-width="8" stroke-miterlimit="10" x1="361" y1="363.5" x2="361" y2="236.5"/>
	<line fill="none" stroke="#231F20" stroke-width="2" stroke-miterlimit="10" x1="365.5" y1="363.5" x2="365.5" y2="236.5"/>
	<line fill="none" stroke="#4E82BB" stroke-width="8" stroke-miterlimit="10" x1="341" y1="363.5" x2="341" y2="236.5"/>
	<line fill="none" stroke="#7E64A1" stroke-width="8" stroke-miterlimit="10" x1="332" y1="363.5" x2="332" y2="236.5"/>
	<line fill="none" stroke="#231F20" stroke-width="2" stroke-miterlimit="10" x1="336.5" y1="363.5" x2="336.5" y2="236.5"/>
	<line fill="none" stroke="#4E82BB" stroke-width="8" stroke-miterlimit="10" x1="312" y1="363.5" x2="312" y2="236.5"/>
	<line fill="none" stroke="#7E64A1" stroke-width="8" stroke-miterlimit="10" x1="303" y1="363.5" x2="303" y2="236.5"/>
	<line fill="none" stroke="#231F20" stroke-width="2" stroke-miterlimit="10" x1="307.5" y1="363.5" x2="307.5" y2="236.5"/>
	<line fill="none" stroke="#4E82BB" stroke-width="8" stroke-miterlimit="10" x1="284" y1="363.5" x2="284" y2="236.5"/>
	<line fill="none" stroke="#7E64A1" stroke-width="8" stroke-miterlimit="10" x1="275" y1="363.5" x2="275" y2="236.5"/>
	<line fill="none" stroke="#231F20" stroke-width="2" stroke-miterlimit="10" x1="279.5" y1="363.5" x2="279.5" y2="236.5"/>
	<line fill="none" stroke="#4E82BB" stroke-width="8" stroke-miterlimit="10" x1="256" y1="363.5" x2="256" y2="236.5"/>
	<line fill="none" stroke="#7E64A1" stroke-width="8" stroke-miterlimit="10" x1="247" y1="363.5" x2="247" y2="236.5"/>
	<line fill="none" stroke="#231F20" stroke-width="2" stroke-miterlimit="10" x1="251.5" y1="363.5" x2="251.5" y2="236.5"/>
	<line fill="none" stroke="#4E82BB" stroke-width="8" stroke-miterlimit="10" x1="228" y1="363.5" x2="228" y2="236.5"/>
	<line fill="none" stroke="#7E64A1" stroke-width="8" stroke-miterlimit="10" x1="219" y1="363.5" x2="219" y2="236.5"/>
	<line fill="none" stroke="#231F20" stroke-width="2" stroke-miterlimit="10" x1="223.5" y1="363.5" x2="223.5" y2="236.5"/>
	<line fill="none" stroke="#4E82BB" stroke-width="8" stroke-miterlimit="10" x1="198" y1="363.5" x2="198" y2="236.5"/>
	<line fill="none" stroke="#7E64A1" stroke-width="8" stroke-miterlimit="10" x1="189" y1="363.5" x2="189" y2="236.5"/>
	<line fill="none" stroke="#231F20" stroke-width="2" stroke-miterlimit="10" x1="193.5" y1="363.5" x2="193.5" y2="236.5"/>
	<line fill="none" stroke="#4E82BB" stroke-width="8" stroke-miterlimit="10" x1="171" y1="363.5" x2="171" y2="236.5"/>
	<line fill="none" stroke="#7E64A1" stroke-width="8" stroke-miterlimit="10" x1="162" y1="363.5" x2="162" y2="236.5"/>
	<line fill="none" stroke="#231F20" stroke-width="2" stroke-miterlimit="10" x1="166.5" y1="363.5" x2="166.5" y2="236.5"/>
	<line fill="none" stroke="#4E82BB" stroke-width="8" stroke-miterlimit="10" x1="143" y1="363.5" x2="143" y2="236.5"/>
	<line fill="none" stroke="#7E64A1" stroke-width="8" stroke-miterlimit="10" x1="134" y1="363.5" x2="134" y2="236.5"/>
	<line fill="none" stroke="#231F20" stroke-width="2" stroke-miterlimit="10" x1="138.5" y1="363.5" x2="138.5" y2="236.5"/>
	<line fill="none" stroke="#4E82BB" stroke-width="8" stroke-miterlimit="10" x1="113" y1="363.5" x2="113" y2="236.5"/>
	<line fill="none" stroke="#7E64A1" stroke-width="8" stroke-miterlimit="10" x1="104" y1="363.5" x2="104" y2="236.5"/>
	<line fill="none" stroke="#231F20" stroke-width="2" stroke-miterlimit="10" x1="108.5" y1="363.5" x2="108.5" y2="236.5"/>
	<line fill="none" stroke="#4E82BB" stroke-width="8" stroke-miterlimit="10" x1="455" y1="144.5" x2="455" y2="17.5"/>
	<line fill="none" stroke="#7E64A1" stroke-width="8" stroke-miterlimit="10" x1="446" y1="144.5" x2="446" y2="17.5"/>
	<line fill="none" stroke="#231F20" stroke-width="2" stroke-miterlimit="10" x1="450.5" y1="144.5" x2="450.5" y2="17.5"/>
	<line fill="none" stroke="#4E82BB" stroke-width="8" stroke-miterlimit="10" x1="424" y1="144.5" x2="424" y2="17.5"/>
	<line fill="none" stroke="#7E64A1" stroke-width="8" stroke-miterlimit="10" x1="415" y1="144.5" x2="415" y2="17.5"/>
	<line fill="none" stroke="#231F20" stroke-width="2" stroke-miterlimit="10" x1="419.5" y1="144.5" x2="419.5" y2="17.5"/>
	<line fill="none" stroke="#4E82BB" stroke-width="8" stroke-miterlimit="10" x1="391" y1="144.5" x2="391" y2="17.5"/>
	<line fill="none" stroke="#7E64A1" stroke-width="8" stroke-miterlimit="10" x1="382" y1="144.5" x2="382" y2="17.5"/>
	<line fill="none" stroke="#231F20" stroke-width="2" stroke-miterlimit="10" x1="386.5" y1="144.5" x2="386.5" y2="17.5"/>
	<line fill="none" stroke="#4E82BB" stroke-width="8" stroke-miterlimit="10" x1="357" y1="144.5" x2="357" y2="17.5"/>
	<line fill="none" stroke="#7E64A1" stroke-width="8" stroke-miterlimit="10" x1="348" y1="144.5" x2="348" y2="17.5"/>
	<line fill="none" stroke="#231F20" stroke-width="2" stroke-miterlimit="10" x1="352.5" y1="144.5" x2="352.5" y2="17.5"/>
	<line fill="none" stroke="#4E82BB" stroke-width="8" stroke-miterlimit="10" x1="323" y1="144.5" x2="323" y2="17.5"/>
	<line fill="none" stroke="#7E64A1" stroke-width="8" stroke-miterlimit="10" x1="314" y1="144.5" x2="314" y2="17.5"/>
	<line fill="none" stroke="#231F20" stroke-width="2" stroke-miterlimit="10" x1="318.5" y1="144.5" x2="318.5" y2="17.5"/>
	<line fill="none" stroke="#4E82BB" stroke-width="8" stroke-miterlimit="10" x1="289" y1="144.5" x2="289" y2="17.5"/>
	<line fill="none" stroke="#7E64A1" stroke-width="8" stroke-miterlimit="10" x1="280" y1="144.5" x2="280" y2="17.5"/>
	<line fill="none" stroke="#231F20" stroke-width="2" stroke-miterlimit="10" x1="284.5" y1="144.5" x2="284.5" y2="17.5"/>
	<line fill="none" stroke="#4E82BB" stroke-width="8" stroke-miterlimit="10" x1="258" y1="144.5" x2="258" y2="17.5"/>
	<line fill="none" stroke="#7E64A1" stroke-width="8" stroke-miterlimit="10" x1="249" y1="144.5" x2="249" y2="17.5"/>
	<line fill="none" stroke="#231F20" stroke-width="2" stroke-miterlimit="10" x1="253.5" y1="144.5" x2="253.5" y2="17.5"/>
	<line fill="none" stroke="#4E82BB" stroke-width="8" stroke-miterlimit="10" x1="225" y1="144.5" x2="225" y2="17.5"/>
	<line fill="none" stroke="#7E64A1" stroke-width="8" stroke-miterlimit="10" x1="216" y1="144.5" x2="216" y2="17.5"/>
	<line fill="none" stroke="#231F20" stroke-width="2" stroke-miterlimit="10" x1="220.5" y1="144.5" x2="220.5" y2="17.5"/>
	<line fill="none" stroke="#4E82BB" stroke-width="8" stroke-miterlimit="10" x1="196" y1="144.5" x2="196" y2="17.5"/>
	<line fill="none" stroke="#7E64A1" stroke-width="8" stroke-miterlimit="10" x1="187" y1="144.5" x2="187" y2="17.5"/>
	<line fill="none" stroke="#231F20" stroke-width="2" stroke-miterlimit="10" x1="191.5" y1="144.5" x2="191.5" y2="17.5"/>
	<line fill="none" stroke="#4E82BB" stroke-width="8" stroke-miterlimit="10" x1="166" y1="144.5" x2="166" y2="17.5"/>
	<line fill="none" stroke="#7E64A1" stroke-width="8" stroke-miterlimit="10" x1="157" y1="144.5" x2="157" y2="17.5"/>
	<line fill="none" stroke="#231F20" stroke-width="2" stroke-miterlimit="10" x1="161.5" y1="144.5" x2="161.5" y2="17.5"/>
	<line fill="none" stroke="#4E82BB" stroke-width="8" stroke-miterlimit="10" x1="137" y1="144.5" x2="137" y2="17.5"/>
	<line fill="none" stroke="#7E64A1" stroke-width="8" stroke-miterlimit="10" x1="128" y1="144.5" x2="128" y2="17.5"/>
	<line fill="none" stroke="#231F20" stroke-width="2" stroke-miterlimit="10" x1="132.5" y1="144.5" x2="132.5" y2="17.5"/>
	<line fill="none" stroke="#4E82BB" stroke-width="8" stroke-miterlimit="10" x1="107" y1="144.5" x2="107" y2="17.5"/>
	<line fill="none" stroke="#7E64A1" stroke-width="8" stroke-miterlimit="10" x1="98" y1="144.5" x2="98" y2="17.5"/>
	<line fill="none" stroke="#231F20" stroke-width="2" stroke-miterlimit="10" x1="102.5" y1="144.5" x2="102.5" y2="17.5"/>
	<line fill="none" stroke="#4E82BB" stroke-width="8" stroke-miterlimit="10" x1="820" y1="366" x2="820" y2="238"/>
	<line fill="none" stroke="#7E64A1" stroke-width="8" stroke-miterlimit="10" x1="811" y1="366" x2="811" y2="238"/>
	<line fill="none" stroke="#231F20" stroke-width="2" stroke-miterlimit="10" x1="815.5" y1="366" x2="815.5" y2="238"/>
	<line fill="none" stroke="#4E82BB" stroke-width="8" stroke-miterlimit="10" x1="847" y1="366" x2="847" y2="238"/>
	<line fill="none" stroke="#7E64A1" stroke-width="8" stroke-miterlimit="10" x1="838" y1="366" x2="838" y2="238"/>
	<line fill="none" stroke="#231F20" stroke-width="2" stroke-miterlimit="10" x1="842.5" y1="366" x2="842.5" y2="238"/>
	<line fill="none" stroke="#4E82BB" stroke-width="8" stroke-miterlimit="10" x1="877" y1="366" x2="877" y2="238"/>
	<line fill="none" stroke="#7E64A1" stroke-width="8" stroke-miterlimit="10" x1="868" y1="366" x2="868" y2="238"/>
	<line fill="none" stroke="#231F20" stroke-width="2" stroke-miterlimit="10" x1="872.5" y1="366" x2="872.5" y2="238"/>
	<line fill="none" stroke="#4E82BB" stroke-width="8" stroke-miterlimit="10" x1="907" y1="366" x2="907" y2="238"/>
	<line fill="none" stroke="#7E64A1" stroke-width="8" stroke-miterlimit="10" x1="898" y1="366" x2="898" y2="238"/>
	<line fill="none" stroke="#231F20" stroke-width="2" stroke-miterlimit="10" x1="902.5" y1="366" x2="902.5" y2="238"/>
	<line fill="none" stroke="#4E82BB" stroke-width="8" stroke-miterlimit="10" x1="935" y1="366" x2="935" y2="238"/>
	<line fill="none" stroke="#7E64A1" stroke-width="8" stroke-miterlimit="10" x1="926" y1="366" x2="926" y2="238"/>
	<line fill="none" stroke="#231F20" stroke-width="2" stroke-miterlimit="10" x1="930.5" y1="366" x2="930.5" y2="238"/>
	<line fill="none" stroke="#4E82BB" stroke-width="8" stroke-miterlimit="10" x1="964" y1="366" x2="964" y2="238"/>
	<line fill="none" stroke="#7E64A1" stroke-width="8" stroke-miterlimit="10" x1="955" y1="366" x2="955" y2="238"/>
	<line fill="none" stroke="#231F20" stroke-width="2" stroke-miterlimit="10" x1="959.5" y1="366" x2="959.5" y2="238"/>
	<line fill="none" stroke="#4E82BB" stroke-width="8" stroke-miterlimit="10" x1="994" y1="365" x2="994" y2="238"/>
	<line fill="none" stroke="#7E64A1" stroke-width="8" stroke-miterlimit="10" x1="985" y1="365" x2="985" y2="238"/>
	<line fill="none" stroke="#231F20" stroke-width="2" stroke-miterlimit="10" x1="989.5" y1="365" x2="989.5" y2="238"/>
	<line fill="none" stroke="#4E82BB" stroke-width="8" stroke-miterlimit="10" x1="1022" y1="365" x2="1022" y2="238"/>
	<line fill="none" stroke="#7E64A1" stroke-width="8" stroke-miterlimit="10" x1="1013" y1="365" x2="1013" y2="238"/>
	<line fill="none" stroke="#231F20" stroke-width="2" stroke-miterlimit="10" x1="1017.5" y1="365" x2="1017.5" y2="238"/>
	<line fill="none" stroke="#4E82BB" stroke-width="8" stroke-miterlimit="10" x1="1049" y1="365" x2="1049" y2="238"/>
	<line fill="none" stroke="#7E64A1" stroke-width="8" stroke-miterlimit="10" x1="1040" y1="365" x2="1040" y2="238"/>
	<line fill="none" stroke="#231F20" stroke-width="2" stroke-miterlimit="10" x1="1044.5" y1="365" x2="1044.5" y2="238"/>
	<line fill="none" stroke="#4E82BB" stroke-width="8" stroke-miterlimit="10" x1="1077" y1="365" x2="1077" y2="238"/>
	<line fill="none" stroke="#7E64A1" stroke-width="8" stroke-miterlimit="10" x1="1068" y1="365" x2="1068" y2="238"/>
	<line fill="none" stroke="#231F20" stroke-width="2" stroke-miterlimit="10" x1="1072.5" y1="365" x2="1072.5" y2="238"/>
	<line fill="none" stroke="#4E82BB" stroke-width="8" stroke-miterlimit="10" x1="1102" y1="365" x2="1102" y2="238"/>
	<line fill="none" stroke="#7E64A1" stroke-width="8" stroke-miterlimit="10" x1="1093" y1="365" x2="1093" y2="238"/>
	<line fill="none" stroke="#231F20" stroke-width="2" stroke-miterlimit="10" x1="1097.5" y1="365" x2="1097.5" y2="238"/>
	<line fill="none" stroke="#4E82BB" stroke-width="8" stroke-miterlimit="10" x1="760" y1="143.5" x2="760" y2="16"/>
	<line fill="none" stroke="#7E64A1" stroke-width="8" stroke-miterlimit="10" x1="751" y1="143.5" x2="751" y2="16.5"/>
	<line fill="none" stroke="#231F20" stroke-width="2" stroke-miterlimit="10" x1="755.5" y1="143.5" x2="755.5" y2="16"/>
	<line fill="none" stroke="#4E82BB" stroke-width="8" stroke-miterlimit="10" x1="789" y1="143.5" x2="789" y2="16"/>
	<line fill="none" stroke="#7E64A1" stroke-width="8" stroke-miterlimit="10" x1="780" y1="143.5" x2="780" y2="16"/>
	<line fill="none" stroke="#231F20" stroke-width="2" stroke-miterlimit="10" x1="784.5" y1="143.5" x2="784.5" y2="16"/>
	<line fill="none" stroke="#4E82BB" stroke-width="8" stroke-miterlimit="10" x1="819" y1="143.5" x2="819" y2="15.5"/>
	<line fill="none" stroke="#7E64A1" stroke-width="8" stroke-miterlimit="10" x1="810" y1="143.5" x2="810" y2="15.5"/>
	<line fill="none" stroke="#231F20" stroke-width="2" stroke-miterlimit="10" x1="814.5" y1="143.5" x2="814.5" y2="15.5"/>
	<line fill="none" stroke="#4E82BB" stroke-width="8" stroke-miterlimit="10" x1="851" y1="143.5" x2="851" y2="15.5"/>
	<line fill="none" stroke="#7E64A1" stroke-width="8" stroke-miterlimit="10" x1="842" y1="143.5" x2="842" y2="15.5"/>
	<line fill="none" stroke="#231F20" stroke-width="2" stroke-miterlimit="10" x1="846.5" y1="143.5" x2="846.5" y2="15.5"/>
	<line fill="none" stroke="#4E82BB" stroke-width="8" stroke-miterlimit="10" x1="881" y1="143.5" x2="881" y2="15.5"/>
	<line fill="none" stroke="#7E64A1" stroke-width="8" stroke-miterlimit="10" x1="872" y1="143.5" x2="872" y2="15.5"/>
	<line fill="none" stroke="#231F20" stroke-width="2" stroke-miterlimit="10" x1="876.5" y1="143.5" x2="876.5" y2="15.5"/>
	<line fill="none" stroke="#4E82BB" stroke-width="8" stroke-miterlimit="10" x1="909" y1="143.5" x2="909" y2="15.5"/>
	<line fill="none" stroke="#7E64A1" stroke-width="8" stroke-miterlimit="10" x1="900" y1="143.5" x2="900" y2="15.5"/>
	<line fill="none" stroke="#231F20" stroke-width="2" stroke-miterlimit="10" x1="904.5" y1="143.5" x2="904.5" y2="15.5"/>
	<line fill="none" stroke="#4E82BB" stroke-width="8" stroke-miterlimit="10" x1="938" y1="143.5" x2="938" y2="15.5"/>
	<line fill="none" stroke="#7E64A1" stroke-width="8" stroke-miterlimit="10" x1="929" y1="143.5" x2="929" y2="15.5"/>
	<line fill="none" stroke="#231F20" stroke-width="2" stroke-miterlimit="10" x1="933.5" y1="143.5" x2="933.5" y2="15.5"/>
	<line fill="none" stroke="#4E82BB" stroke-width="8" stroke-miterlimit="10" x1="968" y1="143.5" x2="968" y2="15.5"/>
	<line fill="none" stroke="#7E64A1" stroke-width="8" stroke-miterlimit="10" x1="959" y1="143.5" x2="959" y2="15.5"/>
	<line fill="none" stroke="#231F20" stroke-width="2" stroke-miterlimit="10" x1="963.5" y1="143.5" x2="963.5" y2="15.5"/>
	<line fill="none" stroke="#4E82BB" stroke-width="8" stroke-miterlimit="10" x1="999" y1="143.5" x2="999" y2="15.5"/>
	<line fill="none" stroke="#7E64A1" stroke-width="8" stroke-miterlimit="10" x1="990" y1="143.5" x2="990" y2="15.5"/>
	<line fill="none" stroke="#231F20" stroke-width="2" stroke-miterlimit="10" x1="994.5" y1="143.5" x2="994.5" y2="15.5"/>
	<line fill="none" stroke="#4E82BB" stroke-width="8" stroke-miterlimit="10" x1="1027" y1="143.5" x2="1027" y2="15.5"/>
	<line fill="none" stroke="#7E64A1" stroke-width="8" stroke-miterlimit="10" x1="1018" y1="143.5" x2="1018" y2="15.5"/>
	<line fill="none" stroke="#231F20" stroke-width="2" stroke-miterlimit="10" x1="1022.5" y1="143.5" x2="1022.5" y2="15.5"/>
	<line fill="none" stroke="#4E82BB" stroke-width="8" stroke-miterlimit="10" x1="1056" y1="143.5" x2="1056" y2="16"/>
	<line fill="none" stroke="#7E64A1" stroke-width="8" stroke-miterlimit="10" x1="1047" y1="143.5" x2="1047" y2="16"/>
	<line fill="none" stroke="#231F20" stroke-width="2" stroke-miterlimit="10" x1="1051.5" y1="143.5" x2="1051.5" y2="16"/>
	<line fill="none" stroke="#4E82BB" stroke-width="8" stroke-miterlimit="10" x1="1083" y1="143.5" x2="1083" y2="16"/>
	<line fill="none" stroke="#7E64A1" stroke-width="8" stroke-miterlimit="10" x1="1074" y1="143.5" x2="1074" y2="16"/>
	<line fill="none" stroke="#231F20" stroke-width="2" stroke-miterlimit="10" x1="1078.5" y1="143.5" x2="1078.5" y2="16"/>
	<line fill="none" stroke="#4E82BB" stroke-width="8" stroke-miterlimit="10" x1="1111" y1="143.5" x2="1111" y2="16"/>
	<line fill="none" stroke="#7E64A1" stroke-width="8" stroke-miterlimit="10" x1="1102" y1="143.5" x2="1102" y2="16"/>
	<line fill="none" stroke="#231F20" stroke-width="2" stroke-miterlimit="10" x1="1106.5" y1="143.5" x2="1106.5" y2="16"/>
	<line fill="none" stroke="#4C83BC" stroke-width="8" stroke-miterlimit="10" x1="719.5" y1="378" x2="719.5" y2="338"/>
	<line fill="none" stroke="#4C83BC" stroke-width="8" stroke-miterlimit="10" x1="507.5" y1="378" x2="507.5" y2="338"/>
	<line fill="none" stroke="#375E89" stroke-width="2" stroke-miterlimit="10" x1="738" y1="194.5" x2="738" y2="2"/>
	<line fill="none" stroke="#395B89" stroke-width="2" stroke-miterlimit="10" x1="666" y1="194" x2="666" y2="163.5"/>
	<line fill="none" stroke="#395B89" stroke-width="2" stroke-miterlimit="10" x1="558" y1="194" x2="558" y2="163.5"/>
	<line fill="none" stroke="#395B89" stroke-width="2" stroke-miterlimit="10" x1="666" y1="164.5" x2="558" y2="164.5"/>
	<line fill="#395B89" stroke="#395B89" stroke-width="2" stroke-miterlimit="10" x1="667" y1="193.5" x2="557" y2="193.5"/>
	<line fill="none" stroke="#395B89" stroke-width="2" stroke-miterlimit="10" x1="672.5" y1="59.5" x2="672.5" y2="0"/>
	<line fill="none" stroke="#395B89" stroke-width="2" stroke-miterlimit="10" x1="673.5" y1="59.5" x2="557" y2="59.5"/>
	<line fill="none" stroke="#395B89" stroke-width="2" stroke-miterlimit="10" x1="558" y1="59.5" x2="558" y2="0"/>
	<line fill="none" stroke="#375E89" stroke-width="2" stroke-miterlimit="10" x1="476" y1="194.5" x2="476" y2="0"/>
	<line fill="none" stroke="#395B89" stroke-width="2" stroke-miterlimit="10" x1="716" y1="339" x2="511" y2="339"/>
	<line fill="none" stroke="#395E8B" stroke-width="2" stroke-miterlimit="10" x1="651" y1="338" x2="651" y2="295"/>
	<line fill="none" stroke="#395E8B" stroke-width="2" stroke-miterlimit="10" x1="651" y1="295" x2="574" y2="295"/>
	<line fill="none" stroke="#395E8B" stroke-width="2" stroke-miterlimit="10" x1="574" y1="295" x2="574" y2="338"/>
	<line fill="none" stroke="#01B0F1" stroke-width="42" stroke-miterlimit="10" x1="650.5" y1="317.3" x2="575" y2="317.3"/>
	<line fill="none" stroke="#F8FC43" stroke-width="58" stroke-miterlimit="10" x1="671.5" y1="29.5" x2="560" y2="29.5"/>
	<line fill="none" stroke="#F8FC43" stroke-width="27" stroke-miterlimit="10" x1="664.5" y1="178.8" x2="559" y2="178.8"/>
	<line fill="none" stroke="#4E82BB" stroke-width="8" stroke-miterlimit="10" x1="1137" y1="143" x2="1137" y2="16"/>
	<line fill="none" stroke="#7E64A1" stroke-width="8" stroke-miterlimit="10" x1="1128" y1="143" x2="1128" y2="16"/>
	<line fill="none" stroke="#231F20" stroke-width="2" stroke-miterlimit="10" x1="1132.5" y1="143" x2="1132.5" y2="16"/>
	<line fill="none" stroke="#4E82BB" stroke-width="8" stroke-miterlimit="10" x1="1126" y1="365" x2="1126" y2="238"/>
	<line fill="none" stroke="#7E64A1" stroke-width="8" stroke-miterlimit="10" x1="1117" y1="365" x2="1117" y2="238"/>
	<line fill="none" stroke="#231F20" stroke-width="2" stroke-miterlimit="10" x1="1121.5" y1="365" x2="1121.5" y2="238"/>
	<line fill="none" stroke="#3A5C8A" stroke-width="2" stroke-miterlimit="10" x1="1150" y1="223" x2="1150" y2="0"/>
	<line fill="none" stroke="#3A5C8A" stroke-width="2" stroke-miterlimit="10" x1="1150" y1="1" x2="547.5" y2="1"/>
	<line fill="none" stroke="#3A5C8A" stroke-width="2" stroke-miterlimit="10" x1="78.5" y1="223" x2="78" y2="0"/>
	<line fill="none" stroke="#3A5C8A" stroke-width="2" stroke-miterlimit="10" x1="79" y1="1" x2="557" y2="1"/>
	<line fill="none" stroke="#375E89" stroke-width="3" stroke-miterlimit="10" x1="1148.5" y1="376" x2="80.5" y2="376"/>
	<line fill="none" stroke="#231F20" stroke-miterlimit="10" x1="1149" y1="216.7" x2="1134" y2="216.7"/>
	<path fill="none" stroke="#231F20" stroke-miterlimit="10" d="M1134,216.7c0-8.1,6.7-14.7,15-14.7"/>
	<line fill="none" stroke="#231F20" stroke-width="2" stroke-miterlimit="10" x1="1182.7" y1="223" x2="1182.7" y2="209.3"/>
	<path fill="none" stroke="#231F20" stroke-miterlimit="10" d="M1196.7,223c0-7.6-6.3-13.7-14-13.7"/>
	<line fill="none" stroke="#4D83BF" stroke-width="10" stroke-miterlimit="10" x1="1144.3" y1="193" x2="1144.3" y2="157.7"/>
	<line fill="none" stroke="#375D89" stroke-width="2" stroke-miterlimit="10" x1="1229" y1="157.7" x2="1150" y2="157.7"/>
	<line fill="none" stroke="#231F20" stroke-width="2" stroke-miterlimit="10" x1="606.3" y1="73.7" x2="606.3" y2="61"/>
	<path fill="none" stroke="#231F20" stroke-miterlimit="10" d="M621,60.5c0,7.1-6.6,12.8-14.7,12.8"/>
	<line fill="none" stroke="#231F20" stroke-width="2" stroke-miterlimit="10" x1="536.7" y1="354.7" x2="536.7" y2="340"/>
	<path fill="none" stroke="#231F20" stroke-miterlimit="10" d="M550,340c0,8.1-6,14.7-13.3,14.7"/>
	<line fill="none" stroke="#231F20" stroke-width="2" stroke-miterlimit="10" x1="673.3" y1="338" x2="673.3" y2="323.7"/>
	<path fill="none" stroke="#231F20" stroke-miterlimit="10" d="M687.7,338c0-7.9-6.4-14.3-14.3-14.3"/>
	<line fill="none" stroke="#231F20" stroke-width="2" stroke-miterlimit="10" x1="79.7" y1="220.7" x2="97" y2="220.7"/>
	<path fill="none" stroke="#231F20" stroke-miterlimit="10" d="M97,220.7c0-8.5-8.1-15.3-18-15.3"/>
	<path fill="none" stroke="#231F20" stroke-width="2" stroke-miterlimit="10" d="M2.3,217.3c0,0,7.3,0,16.3,0"/>
	<path fill="none" stroke="#231F20" stroke-miterlimit="10" d="M18.7,217.3c0-8.7-7.3-15.7-16.3-15.7"/>
	<line fill="none" stroke="#395D89" stroke-width="2" stroke-miterlimit="10" x1="1" y1="223" x2="1" y2="156"/>
	<line fill="none" stroke="#395D89" stroke-width="2" stroke-miterlimit="10" x1="1" y1="157" x2="78" y2="157"/>
	<line fill="none" stroke="#375D89" stroke-width="2" stroke-miterlimit="10" x1="1228" y1="223" x2="1228" y2="157.7"/>
	<line fill="none" stroke="#3E5F8A" stroke-width="2" stroke-miterlimit="10" x1="723.5" y1="194" x2="723.5" y2="164.5"/>
	<line fill="none" stroke="#3E5F8A" stroke-width="2" stroke-miterlimit="10" x1="723" y1="165.5" x2="666.8" y2="165.5"/>
	<line fill="none" stroke="#3E5F8A" stroke-width="2" stroke-miterlimit="10" x1="502" y1="194.5" x2="502" y2="164.5"/>
	<line fill="none" stroke="#3E5F8A" stroke-width="2" stroke-miterlimit="10" x1="501" y1="165.5" x2="557" y2="165.5"/>
	<line fill="none" stroke="#1A395C" stroke-width="2" stroke-miterlimit="10" x1="716" y1="194.5" x2="716" y2="166"/>
	<line fill="none" stroke="#1A395C" stroke-width="2" stroke-miterlimit="10" x1="709" y1="194" x2="709" y2="166"/>
	<line fill="none" stroke="#1A395C" stroke-width="2" stroke-miterlimit="10" x1="702" y1="194" x2="702" y2="166"/>
	<line fill="none" stroke="#1A395C" stroke-width="2" stroke-miterlimit="10" x1="695" y1="194" x2="695" y2="166"/>
	<line fill="none" stroke="#1A395C" stroke-width="2" stroke-miterlimit="10" x1="688" y1="194" x2="688" y2="166"/>
	<line fill="none" stroke="#1A395C" stroke-width="2" stroke-miterlimit="10" x1="681" y1="194" x2="681" y2="166"/>
	<line fill="none" stroke="#1A395C" stroke-width="2" stroke-miterlimit="10" x1="674" y1="194" x2="674" y2="166"/>
	<line fill="none" stroke="#1A395C" stroke-width="2" stroke-miterlimit="10" x1="551" y1="194" x2="551" y2="166"/>
	<line fill="none" stroke="#1A395C" stroke-width="2" stroke-miterlimit="10" x1="544" y1="194" x2="544" y2="166"/>
	<line fill="none" stroke="#1A395C" stroke-width="2" stroke-miterlimit="10" x1="537" y1="194" x2="537" y2="166"/>
	<line fill="none" stroke="#1A395C" stroke-width="2" stroke-miterlimit="10" x1="530" y1="194" x2="530" y2="166"/>
	<line fill="none" stroke="#1A395C" stroke-width="2" stroke-miterlimit="10" x1="523" y1="194" x2="523" y2="166"/>
	<line fill="none" stroke="#1A395C" stroke-width="2" stroke-miterlimit="10" x1="516" y1="194" x2="516" y2="166"/>
	<line fill="none" stroke="#1A395C" stroke-width="2" stroke-miterlimit="10" x1="509" y1="194" x2="509" y2="166"/>
	<line fill="none" stroke="#E7B9B7" stroke-width="6" stroke-miterlimit="10" x1="719.5" y1="194.5" x2="719.5" y2="166"/>
	<line fill="none" stroke="#E7B9B7" stroke-width="6" stroke-miterlimit="10" x1="712.5" y1="194.5" x2="712.5" y2="166"/>
	<line fill="none" stroke="#E7B9B7" stroke-width="6" stroke-miterlimit="10" x1="705.5" y1="194.5" x2="705.5" y2="166"/>
	<line fill="none" stroke="#E7B9B7" stroke-width="6" stroke-miterlimit="10" x1="698.5" y1="194.5" x2="698.5" y2="166"/>
	<line fill="none" stroke="#E7B9B7" stroke-width="6" stroke-miterlimit="10" x1="691.5" y1="194.5" x2="691.5" y2="166"/>
	<line fill="none" stroke="#E7B9B7" stroke-width="6" stroke-miterlimit="10" x1="684.5" y1="194.5" x2="684.5" y2="166"/>
	<line fill="none" stroke="#E7B9B7" stroke-width="6" stroke-miterlimit="10" x1="677.5" y1="194.5" x2="677.5" y2="166"/>
	<line fill="none" stroke="#E7B9B7" stroke-width="6.1" stroke-miterlimit="10" x1="670.3" y1="194.5" x2="670.3" y2="166"/>
	<line fill="none" stroke="#E7B9B7" stroke-width="6" stroke-miterlimit="10" x1="554.5" y1="194.5" x2="554.5" y2="166"/>
	<line fill="none" stroke="#E7B9B7" stroke-width="6" stroke-miterlimit="10" x1="547.5" y1="194.5" x2="547.5" y2="166"/>
	<line fill="none" stroke="#E7B9B7" stroke-width="6" stroke-miterlimit="10" x1="540.5" y1="194.5" x2="540.5" y2="166"/>
	<line fill="none" stroke="#E7B9B7" stroke-width="6" stroke-miterlimit="10" x1="533.5" y1="194.5" x2="533.5" y2="166"/>
	<line fill="none" stroke="#E7B9B7" stroke-width="6" stroke-miterlimit="10" x1="526.5" y1="194.5" x2="526.5" y2="166"/>
	<line fill="none" stroke="#E7B9B7" stroke-width="6" stroke-miterlimit="10" x1="519.5" y1="194.5" x2="519.5" y2="166"/>
	<line fill="none" stroke="#E7B9B7" stroke-width="6" stroke-miterlimit="10" x1="512.5" y1="194.5" x2="512.5" y2="166"/>
	<line fill="none" stroke="#E7B9B7" stroke-width="6" stroke-miterlimit="10" x1="505.5" y1="194.5" x2="505.5" y2="166"/>
</g>
<g id="curve">
	<line fill="none" stroke="#3E5F8A" stroke-miterlimit="10" x1="1122.5" y1="374.5" x2="1122.5" y2="227.5"/>
	<path fill="none" stroke="#3E5F8A" stroke-miterlimit="10" d="M1122.5,228.5c0-18.8-12.1-34-27-34"/>
	<line fill="none" stroke="#3E5F8A" stroke-miterlimit="10" x1="1095.5" y1="194.5" x2="134.5" y2="194.5"/>
	<line fill="none" stroke="#3E5F8A" stroke-miterlimit="10" x1="109.5" y1="376.5" x2="109.5" y2="236.5"/>
	<path fill="none" stroke="#3E5F8A" stroke-miterlimit="10" d="M134.5,194.5c-16.5,2.1-27.6,21.4-24.8,43"/>
</g>
</svg>
